<?xml version="1.0" standalone="no"?>
<!DOCTYPE svg PUBLIC "-//W3C//DTD SVG 20010904//EN"
 "http://www.w3.org/TR/2001/REC-SVG-20010904/DTD/svg10.dtd">
<svg version="1.0" xmlns="http://www.w3.org/2000/svg"
 width="260.000000pt" height="260.000000pt" viewBox="0 0 260.000000 260.000000"
 preserveAspectRatio="xMidYMid meet">
<metadata>
Created by potrace 1.14, written by Peter Selinger 2001-2017
</metadata>
<g transform="translate(0.000000,260.000000) scale(0.100000,-0.100000)"
fill="#000000" stroke="none">
<path d="M1095 2554 c-535 -92 -947 -500 -1045 -1033 -15 -83 -18 -137 -15
-251 4 -152 6 -171 35 -285 90 -353 339 -660 668 -824 69 -35 246 -96 302
-105 19 -3 46 -8 60 -12 52 -13 325 -12 405 2 184 32 382 114 530 219 104 73
249 223 318 327 154 233 220 462 212 738 -4 165 -8 193 -42 309 -139 481 -529
832 -1018 915 -104 17 -309 18 -410 0z m400 -99 c71 -12 95 -18 179 -46 245
-82 464 -251 607 -469 268 -406 249 -952 -45 -1343 -422 -561 -1233 -628
-1742 -145 -420 399 -485 1042 -154 1518 204 294 557 489 905 499 44 1 81 4
82 5 3 3 116 -10 168 -19z"/>
<path d="M1190 2257 c0 -7 14 -18 30 -24 29 -11 30 -13 30 -77 l0 -66 -222 -2
c-189 -3 -223 -5 -223 -18 0 -8 9 -16 20 -18 45 -9 55 -30 55 -122 l0 -88 -64
-1 c-222 -3 -362 -200 -286 -403 41 -111 140 -178 272 -186 l78 -5 0 -199 0
-200 -99 4 c-90 3 -102 5 -127 28 -29 27 -54 77 -50 102 3 25 27 48 48 48 11
0 18 5 16 13 -6 18 -158 23 -159 5 -7 -100 21 -183 78 -235 59 -54 98 -61 383
-61 140 0 262 -1 270 -1 13 -1 15 -27 12 -187 l-3 -186 -29 -11 c-32 -12 -40
-34 -14 -39 9 -2 59 -2 110 0 99 4 122 17 64 39 -29 11 -30 14 -30 75 -1 34
-1 217 0 406 0 188 -4 342 -8 343 -36 5 -69 5 -79 2 -10 -4 -13 -48 -13 -174
l0 -169 -138 0 -138 0 1 420 0 420 -47 0 -48 0 -2 -172 -3 -173 -61 1 c-151 4
-244 128 -199 265 17 50 65 101 114 121 16 7 119 12 274 14 l247 1 0 -201 0
-201 -112 0 -113 0 -3 -47 -3 -48 248 0 c223 0 252 -2 283 -19 64 -34 74 -66
75 -231 l1 -145 -116 -5 -115 -5 -3 -46 -3 -47 238 2 238 1 57 28 c65 32 127
96 151 157 22 57 18 182 -8 235 -48 97 -140 158 -261 170 -47 4 -52 3 -72 -24
l-21 -29 23 -21 c15 -14 36 -21 62 -21 147 -1 244 -157 178 -288 -37 -74 -88
-106 -180 -110 l-72 -4 -4 168 c-4 181 -10 204 -62 253 l-25 24 26 31 c53 62
63 100 63 239 l0 127 -47 0 -48 0 -1 -125 c0 -109 -3 -129 -20 -152 -40 -53
-66 -65 -150 -67 -44 -1 -86 -1 -94 1 -13 4 -15 44 -13 299 l3 294 -50 0 -50
0 0 -50 0 -49 -137 2 -138 2 -1 72 c0 43 4 74 10 76 6 2 119 3 251 2 209 -1
244 -4 274 -19 50 -26 85 -66 104 -119 6 -17 2 -19 -45 -17 -29 2 -81 2 -115
1 l-63 -1 0 -45 c0 -25 3 -45 8 -46 4 0 117 -1 252 -2 272 -3 294 -7 326 -68
32 -62 24 -98 -24 -113 -47 -15 -16 -31 61 -32 l77 -1 0 64 c0 79 -27 140 -83
188 -51 44 -96 56 -204 57 -69 0 -85 3 -90 17 -34 110 -108 191 -198 216 -16
5 -33 9 -37 10 -5 2 -35 3 -68 4 l-60 1 0 66 c0 64 1 66 30 77 17 6 30 17 30
24 0 10 -27 13 -110 13 -83 0 -110 -3 -110 -13z"/>
<path d="M878 658 c-2 -35 -8 -45 -30 -56 -16 -7 -28 -20 -28 -28 0 -11 21
-14 110 -14 115 0 133 8 80 35 -16 9 -31 21 -32 28 -1 15 -5 48 -7 65 -1 7
-17 12 -45 12 l-45 0 -3 -42z"/>
<path d="M1627 693 c-3 -5 -3 -21 -1 -36 3 -30 -25 -67 -51 -67 -8 0 -15 -7
-15 -15 0 -12 19 -15 109 -15 118 0 143 12 87 40 -26 13 -31 21 -34 58 l-3 42
-44 0 c-24 0 -46 -3 -48 -7z"/>
</g>
</svg>
