<?xml version="1.0" encoding="utf-8"?>
<!-- Generator: Adobe Illustrator 22.0.0, SVG Export Plug-In . SVG Version: 6.00 Build 0)  -->
<svg version="1.1" id="Layer_1" xmlns="http://www.w3.org/2000/svg" xmlns:xlink="http://www.w3.org/1999/xlink" x="0px" y="0px"
	 viewBox="0 0 252 75.5" style="enable-background:new 0 0 252 75.5;" xml:space="preserve">
<style type="text/css">
	.st0{fill:#FFFFFF;}
</style>
<path class="st0" d="M133.8,27.1c0,1-0.2,1.9-0.6,2.6c-0.4,0.7-0.9,1.3-1.6,1.8c-0.7,0.5-1.5,0.8-2.5,1.1c-1,0.2-2.1,0.3-3.3,0.3
	h-6.4V21.1h6.4c2.6,0,4.6,0.5,6,1.6C133.1,23.8,133.8,25.2,133.8,27.1z"/>
<path class="st0" d="M94.9,1c-3.3,0-6,2.7-6,6v67.8h67.8c3.3,0,6-2.7,6-6V1H94.9z M142,61.1h-8.1l-1.9-11.6
	c-0.2-1.4-0.5-2.6-0.9-3.6s-0.9-1.8-1.6-2.4c-0.7-0.6-1.5-1.1-2.4-1.4c-0.9-0.3-2.1-0.5-3.4-0.5h-4.2v10.6h4.5v8.8h-20.2v-3.8
	c0-2.8,2.3-5.1,5.1-5.1V21.1h-5.1v-2.9c0-3.3,2.7-6,6-6h19.8c2.5,0,4.8,0.4,6.7,1.1c2,0.8,3.6,1.8,5,3c1.8,1.7,3,3.7,3.7,6
	c0.4,1.3,0.5,2.7,0.5,4c0,1.5-0.2,2.8-0.5,3.9c-0.4,1.2-0.9,2.4-1.5,3.3c-0.7,1-1.5,1.8-2.5,2.6c-1,0.7-2.1,1.4-3.4,2
	c1.1,0.6,2.1,1.4,2.9,2.6c0.8,1.2,1.5,2.6,1.9,4.5l1.6,6.4h4l0,3.5C148,58.4,145.3,61.1,142,61.1z"/>
<path class="st0" d="M182.9-0.2c-3.3,0-6,2.7-6,6v67.8h67.8c3.3,0,6-2.7,6-6V-0.2H182.9z M224.2,22.3h-5.2v31.2h5.2v2.8
	c0,3.3-2.7,6-6,6h-14.9v-8.8h5.1V22.3h-5.1v-2.8c0-3.3,2.7-6,6-6h14.9V22.3z"/>
<path class="st0" d="M7,1C3.7,1,1,3.7,1,7v67.8h67.7c3.3,0,6-2.7,6-6V1H7z M56.6,24.3c0,3.3-2.7,6-6,6h-5.7v-2.8
	c-0.1-0.8-0.4-1.5-0.8-2.1c-0.4-0.7-1-1.2-1.6-1.7c-0.7-0.5-1.4-0.9-2.2-1.2c-0.8-0.3-1.7-0.4-2.6-0.4c-0.8,0-1.6,0.1-2.3,0.3
	c-0.7,0.2-1.3,0.4-1.9,0.8c-0.5,0.4-1,0.8-1.3,1.4s-0.5,1.2-0.5,2c0,1,0.2,1.7,0.6,2.3s1,1,1.6,1.4c0.7,0.4,1.4,0.6,2.2,0.9
	c0.8,0.2,1.6,0.5,2.3,0.7l8.9,3c1.2,0.4,2.4,1,3.5,1.8s2,1.7,2.8,2.7c0.8,1.1,1.4,2.3,1.9,3.7c0.4,1.4,0.7,3,0.7,4.7
	c0,2.4-0.4,4.5-1.3,6.5c-0.9,2-2.1,3.6-3.7,5c-1.6,1.4-3.5,2.5-5.6,3.3c-2.2,0.8-4.6,1.2-7.3,1.2c-1.9,0-3.6-0.2-5.3-0.6
	c-1.7-0.4-3.2-1-4.6-1.8c-1.4-0.8-2.6-1.7-3.6-2.9c-1-1.1-1.8-2.4-2.4-3.8h-3.3v-3.7c0-3.3,2.7-6,6-6h5.7v2c0,1,0.2,1.9,0.5,2.7
	s0.8,1.5,1.4,2.1c0.6,0.6,1.4,1.1,2.3,1.4c1,0.3,2.1,0.5,3.3,0.5c1.9,0,3.4-0.4,4.4-1.3c1-0.9,1.5-2.1,1.5-3.7c0-0.8-0.2-1.5-0.5-2
	c-0.4-0.5-0.8-1-1.4-1.4c-0.6-0.4-1.2-0.7-1.9-1c-0.7-0.3-1.4-0.5-2-0.7L31.1,41c-1.4-0.4-2.7-1-4-1.8c-1.3-0.8-2.5-1.7-3.5-2.9
	c-1-1.2-1.8-2.5-2.4-4.1c-0.6-1.6-0.9-3.3-0.9-5.3c0-2.3,0.4-4.4,1.3-6.2c0.8-1.8,2.1-3.3,3.6-4.6c1.5-1.3,3.4-2.2,5.5-2.8
	c2.1-0.6,4.5-1,7-1c2,0,3.8,0.2,5.5,0.7c1.7,0.5,3.2,1.1,4.6,1.9c1.4,0.8,2.5,1.7,3.4,2.7c0.9,1,1.7,2,2.1,3.1h3.2V24.3z"/>
</svg>
