<?xml version="1.0" encoding="utf-8"?>
<!-- Generator: Adobe Illustrator 22.0.0, SVG Export Plug-In . SVG Version: 6.00 Build 0)  -->
<svg version="1.1" id="Layer_1" xmlns="http://www.w3.org/2000/svg" xmlns:xlink="http://www.w3.org/1999/xlink" x="0px" y="0px"
	 viewBox="0 0 140.5 74.7" style="enable-background:new 0 0 140.5 74.7;" xml:space="preserve">
<style type="text/css">
	.st0{fill:#FFFFFF;}
</style>
<g>
	<path class="st0" d="M84.6,24c-1.4-1-3.3-1.6-6-1.6h-6.4v11.8h6.4c1.2,0,2.3-0.1,3.3-0.3c1-0.2,1.8-0.6,2.5-1.1
		c0.7-0.5,1.2-1.1,1.6-1.8c0.4-0.7,0.6-1.6,0.6-2.6C86.7,26.5,86,25.1,84.6,24z M84.6,24c-1.4-1-3.3-1.6-6-1.6h-6.4v11.8h6.4
		c1.2,0,2.3-0.1,3.3-0.3c1-0.2,1.8-0.6,2.5-1.1c0.7-0.5,1.2-1.1,1.6-1.8c0.4-0.7,0.6-1.6,0.6-2.6C86.7,26.5,86,25.1,84.6,24z
		 M7.5,0.9c-3.3,0-6,2.7-6,6v67.7h131.9c3.3,0,6-2.7,6-6V0.9H7.5z M51.5,24.2c0,3.3-2.7,6-6,6h-5.7v-2.8c-0.1-0.8-0.4-1.5-0.8-2.1
		c-0.4-0.7-1-1.2-1.6-1.7c-0.7-0.5-1.4-0.9-2.2-1.2c-0.8-0.3-1.7-0.4-2.6-0.4c-0.8,0-1.6,0.1-2.3,0.3c-0.7,0.2-1.3,0.4-1.8,0.8
		c-0.5,0.3-1,0.8-1.3,1.4s-0.5,1.2-0.5,2c0,1,0.2,1.7,0.6,2.3c0.4,0.6,1,1,1.6,1.4c0.7,0.4,1.4,0.7,2.2,0.9c0.8,0.2,1.6,0.5,2.3,0.7
		l8.9,3c1.2,0.4,2.4,1,3.5,1.8c1.1,0.8,2,1.7,2.8,2.7c0.8,1.1,1.4,2.3,1.8,3.7c0.5,1.4,0.7,3,0.7,4.7c0,2.4-0.4,4.5-1.3,6.5
		c-0.9,2-2.1,3.6-3.7,5c-1.6,1.4-3.4,2.5-5.6,3.3c-2.2,0.8-4.6,1.2-7.3,1.2c-1.9,0-3.6-0.2-5.3-0.6c-1.7-0.4-3.2-1-4.6-1.8
		c-1.4-0.8-2.6-1.7-3.6-2.8c-1-1.1-1.8-2.4-2.4-3.8h-3.3v-3.7c0-3.3,2.7-6,6-6h5.7v2c0,1,0.2,1.9,0.5,2.7c0.3,0.8,0.8,1.5,1.4,2.1
		c0.6,0.6,1.4,1.1,2.4,1.4c1,0.3,2,0.5,3.3,0.5c1.9,0,3.4-0.5,4.4-1.3c1-0.9,1.5-2.1,1.5-3.7c0-0.8-0.2-1.5-0.5-2
		c-0.4-0.5-0.8-1-1.4-1.4c-0.6-0.4-1.2-0.7-1.9-1c-0.7-0.3-1.4-0.5-2-0.7L26,40.8c-1.4-0.4-2.8-1-4.1-1.8c-1.3-0.8-2.4-1.7-3.4-2.9
		c-1-1.2-1.8-2.5-2.4-4.1c-0.6-1.6-0.9-3.3-0.9-5.3c0-2.3,0.4-4.4,1.3-6.2c0.9-1.8,2.1-3.3,3.6-4.6c1.5-1.3,3.4-2.2,5.5-2.8
		c2.1-0.6,4.5-1,7-1c2,0,3.8,0.2,5.5,0.7c1.7,0.5,3.2,1.1,4.6,1.9c1.3,0.8,2.5,1.7,3.4,2.7c0.9,1,1.7,2,2.1,3.1h3.2V24.2z
		 M94.8,62.4h-8.1l-1.9-11.6c-0.2-1.4-0.5-2.6-0.9-3.6c-0.4-1-0.9-1.8-1.6-2.5c-0.7-0.6-1.5-1.1-2.4-1.4c-1-0.3-2.1-0.5-3.4-0.5
		h-4.2v10.6h4.5v8.8H56.5v-3.8c0-2.8,2.3-5.1,5.1-5.1V22.5h-5.1v-2.9c0-3.3,2.7-6,6-6h19.8c2.5,0,4.8,0.4,6.7,1.1c2,0.8,3.6,1.8,5,3
		c1.8,1.7,3,3.7,3.7,6c0.4,1.3,0.5,2.7,0.5,4c0,1.5-0.2,2.8-0.5,3.9c-0.4,1.2-0.9,2.3-1.5,3.3c-0.7,1-1.5,1.8-2.5,2.6
		c-1,0.7-2.1,1.4-3.4,2c1.1,0.6,2.1,1.4,2.9,2.6c0.8,1.1,1.5,2.6,1.9,4.5l1.7,6.4h4l0,3.5C100.8,59.7,98.1,62.4,94.8,62.4z
		 M126.7,22.4h-5.2v31.2h5.2v2.8c0,3.3-2.7,6-6,6h-14.9v-8.8h5.1V22.4h-5.1v-2.8c0-3.3,2.7-6,6-6h14.9V22.4z M84.6,24
		c-1.4-1-3.3-1.6-6-1.6h-6.4v11.8h6.4c1.2,0,2.3-0.1,3.3-0.3c1-0.2,1.8-0.6,2.5-1.1c0.7-0.5,1.2-1.1,1.6-1.8
		c0.4-0.7,0.6-1.6,0.6-2.6C86.7,26.5,86,25.1,84.6,24z"/>
	<rect x="148.1" y="3.4" style="fill:none;" width="171" height="73.8"/>
</g>
</svg>
