<?xml version="1.0" encoding="utf-8"?>
<!-- Generator: Adobe Illustrator 22.0.0, SVG Export Plug-In . SVG Version: 6.00 Build 0)  -->
<svg version="1.1" id="Layer_1" xmlns="http://www.w3.org/2000/svg" xmlns:xlink="http://www.w3.org/1999/xlink" x="0px" y="0px"
	 viewBox="0 0 378.4 265" style="enable-background:new 0 0 378.4 265;" xml:space="preserve">
<style type="text/css">
	.st0{clip-path:url(#SVGID_2_);fill:url(#SVGID_3_);}
	.st1{clip-path:url(#SVGID_5_);fill:url(#SVGID_6_);}
	.st2{clip-path:url(#SVGID_8_);fill:url(#SVGID_9_);}
	.st3{clip-path:url(#SVGID_11_);fill:url(#SVGID_12_);}
	.st4{clip-path:url(#SVGID_14_);fill:url(#SVGID_15_);}
	.st5{clip-path:url(#SVGID_17_);fill:url(#SVGID_18_);}
	.st6{clip-path:url(#SVGID_20_);fill:url(#SVGID_21_);}
	.st7{clip-path:url(#SVGID_23_);fill:url(#SVGID_24_);}
	.st8{clip-path:url(#SVGID_26_);fill:url(#SVGID_27_);}
	.st9{clip-path:url(#SVGID_29_);fill:url(#SVGID_30_);}
	.st10{clip-path:url(#SVGID_32_);fill:url(#SVGID_33_);}
	.st11{clip-path:url(#SVGID_35_);fill:url(#SVGID_36_);}
	.st12{clip-path:url(#SVGID_38_);fill:url(#SVGID_39_);}
	.st13{clip-path:url(#SVGID_41_);fill:url(#SVGID_42_);}
	.st14{clip-path:url(#SVGID_44_);fill:url(#SVGID_45_);}
	.st15{clip-path:url(#SVGID_47_);fill:url(#SVGID_48_);}
	.st16{clip-path:url(#SVGID_50_);fill:url(#SVGID_51_);}
	.st17{clip-path:url(#SVGID_53_);fill:url(#SVGID_54_);}
	.st18{clip-path:url(#SVGID_56_);fill:url(#SVGID_57_);}
	.st19{clip-path:url(#SVGID_59_);fill:url(#SVGID_60_);}
	.st20{clip-path:url(#SVGID_62_);fill:url(#SVGID_63_);}
	.st21{clip-path:url(#SVGID_65_);fill:url(#SVGID_66_);}
	.st22{clip-path:url(#SVGID_68_);fill:url(#SVGID_69_);}
	.st23{clip-path:url(#SVGID_71_);fill:url(#SVGID_72_);}
	.st24{clip-path:url(#SVGID_74_);fill:url(#SVGID_75_);}
	.st25{clip-path:url(#SVGID_77_);fill:url(#SVGID_78_);}
	.st26{clip-path:url(#SVGID_80_);fill:url(#SVGID_81_);}
	.st27{clip-path:url(#SVGID_83_);fill:url(#SVGID_84_);}
	.st28{clip-path:url(#SVGID_86_);fill:url(#SVGID_87_);}
	.st29{clip-path:url(#SVGID_89_);fill:url(#SVGID_90_);}
	.st30{clip-path:url(#SVGID_92_);fill:url(#SVGID_93_);}
	.st31{clip-path:url(#SVGID_95_);fill:url(#SVGID_96_);}
	.st32{clip-path:url(#SVGID_98_);fill:url(#SVGID_99_);}
	.st33{clip-path:url(#SVGID_101_);fill:url(#SVGID_102_);}
	.st34{clip-path:url(#SVGID_104_);fill:url(#SVGID_105_);}
	.st35{clip-path:url(#SVGID_107_);fill:url(#SVGID_108_);}
	.st36{clip-path:url(#SVGID_110_);fill:url(#SVGID_111_);}
	.st37{clip-path:url(#SVGID_113_);fill:url(#SVGID_114_);}
	.st38{clip-path:url(#SVGID_116_);fill:url(#SVGID_117_);}
	.st39{clip-path:url(#SVGID_119_);fill:url(#SVGID_120_);}
	.st40{clip-path:url(#SVGID_122_);fill:url(#SVGID_123_);}
	.st41{clip-path:url(#SVGID_125_);fill:url(#SVGID_126_);}
	.st42{clip-path:url(#SVGID_128_);fill:url(#SVGID_129_);}
	.st43{clip-path:url(#SVGID_131_);fill:url(#SVGID_132_);}
	.st44{clip-path:url(#SVGID_134_);fill:url(#SVGID_135_);}
	.st45{clip-path:url(#SVGID_137_);fill:url(#SVGID_138_);}
	.st46{clip-path:url(#SVGID_140_);fill:url(#SVGID_141_);}
	.st47{clip-path:url(#SVGID_143_);fill:url(#SVGID_144_);}
	.st48{clip-path:url(#SVGID_146_);fill:#D3E5EA;}
	.st49{clip-path:url(#SVGID_148_);fill:url(#SVGID_149_);}
	.st50{clip-path:url(#SVGID_151_);fill:url(#SVGID_152_);}
</style>
<g>
	<defs>
		<path id="SVGID_1_" d="M117.5,78.4c0-38.9,31.6-70.5,70.5-70.5c38.9,0,70.5,31.6,70.5,70.5s-31.6,70.6-70.5,70.6
			C149.1,148.9,117.5,117.3,117.5,78.4 M111.6,78.4c0,42.1,34.3,76.4,76.4,76.4c42.1,0,76.4-34.3,76.4-76.4
			C264.4,36.3,230.1,2,188,2C145.9,2,111.6,36.3,111.6,78.4"/>
	</defs>
	<clipPath id="SVGID_2_">
		<use xlink:href="#SVGID_1_"  style="overflow:visible;"/>
	</clipPath>
	
		<linearGradient id="SVGID_3_" gradientUnits="userSpaceOnUse" x1="-611.999" y1="621.43" x2="-610.999" y2="621.43" gradientTransform="matrix(186.6437 232.8235 232.8235 -186.6437 -30358.0313 258442.0469)">
		<stop  offset="0" style="stop-color:#D5AE91"/>
		<stop  offset="1" style="stop-color:#9E7563"/>
	</linearGradient>
	<polygon class="st0" points="204.6,-72.6 338.9,95 171.4,229.3 37.1,61.8 	"/>
</g>
<g>
	<defs>
		<path id="SVGID_4_" d="M144.8,91.4v4c0,0,0,0.1,0,0.1c0,7,5.7,12.7,12.7,12.7h27.9V103h-27.9c-4.2,0-7.6-3.4-7.6-7.6h0
			c0-0.2,0.2-2.4,3.4-2.4v-1.6H144.8z"/>
	</defs>
	<clipPath id="SVGID_5_">
		<use xlink:href="#SVGID_4_"  style="overflow:visible;"/>
	</clipPath>
	
		<linearGradient id="SVGID_6_" gradientUnits="userSpaceOnUse" x1="-611.999" y1="621.4338" x2="-610.999" y2="621.4338" gradientTransform="matrix(169.193 211.0552 211.0552 -169.193 -27527.2559 234305.9688)">
		<stop  offset="0" style="stop-color:#D5AE91"/>
		<stop  offset="1" style="stop-color:#9E7563"/>
	</linearGradient>
	<polygon class="st1" points="169.5,71.6 193.6,101.6 160.7,128 136.6,98 	"/>
</g>
<g>
	<defs>
		<path id="SVGID_7_" d="M212.5,75.9c-0.6,0.9-1.2,1.8-2,2.6c0.7,0.8,1.4,1.7,2,2.6h2.6c6,0,11,4.9,11,11c0,6.1-4.9,11-11,11h-22
			v5.1h22c8.9,0,16.1-7.2,16.1-16.1s-7.2-16.1-16.1-16.1H212.5z"/>
	</defs>
	<clipPath id="SVGID_8_">
		<use xlink:href="#SVGID_7_"  style="overflow:visible;"/>
	</clipPath>
	
		<linearGradient id="SVGID_9_" gradientUnits="userSpaceOnUse" x1="-611.999" y1="621.4421" x2="-610.999" y2="621.4421" gradientTransform="matrix(169.193 211.0552 211.0552 -169.193 -27496.5996 234281.3906)">
		<stop  offset="0" style="stop-color:#D5AE91"/>
		<stop  offset="1" style="stop-color:#9E7563"/>
	</linearGradient>
	<polygon class="st2" points="216.3,57.3 246.9,95.6 208,126.8 177.3,88.6 	"/>
</g>
<g>
	<defs>
		<path id="SVGID_10_" d="M160.9,48.9c-8.9,0-16.1,7.2-16.1,16.1s7.2,16.1,16.1,16.1h4.2v-5.1h-4.2c-6,0-11-4.9-11-11s4.9-11,11-11
			h24.5v-5.1H160.9z"/>
	</defs>
	<clipPath id="SVGID_11_">
		<use xlink:href="#SVGID_10_"  style="overflow:visible;"/>
	</clipPath>
	
		<linearGradient id="SVGID_12_" gradientUnits="userSpaceOnUse" x1="-611.999" y1="621.4179" x2="-610.999" y2="621.4179" gradientTransform="matrix(169.193 211.0552 211.0552 -169.193 -27506.8945 234289.6406)">
		<stop  offset="0" style="stop-color:#D5AE91"/>
		<stop  offset="1" style="stop-color:#9E7563"/>
	</linearGradient>
	<polygon class="st3" points="169.5,29 201.2,68.5 160.7,100.9 129.1,61.5 	"/>
</g>
<g>
	<defs>
		<path id="SVGID_13_" d="M205.4,48.9c0.1,0.2,0.1,0.4,0.1,0.6C205.5,49.3,205.5,49.1,205.4,48.9L205.4,48.9z"/>
	</defs>
	<clipPath id="SVGID_14_">
		<use xlink:href="#SVGID_13_"  style="overflow:visible;"/>
	</clipPath>
	
		<linearGradient id="SVGID_15_" gradientUnits="userSpaceOnUse" x1="-611.999" y1="621.43" x2="-610.999" y2="621.43" gradientTransform="matrix(169.193 211.0552 211.0552 -169.193 -27477.1543 234265.7969)">
		<stop  offset="0" style="stop-color:#D5AE91"/>
		<stop  offset="1" style="stop-color:#9E7563"/>
	</linearGradient>
	<polygon class="st4" points="205.5,48.8 205.9,49.3 205.5,49.6 205.1,49.1 	"/>
</g>
<g>
	<defs>
		<path id="SVGID_16_" d="M205.8,54L205.8,54l0-2.6c0,0,0-0.1,0-0.1V54z"/>
	</defs>
	<clipPath id="SVGID_17_">
		<use xlink:href="#SVGID_16_"  style="overflow:visible;"/>
	</clipPath>
	
		<linearGradient id="SVGID_18_" gradientUnits="userSpaceOnUse" x1="-611.999" y1="621.43" x2="-610.999" y2="621.43" gradientTransform="matrix(169.193 211.0552 211.0552 -169.193 -27478.7129 234267.0469)">
		<stop  offset="0" style="stop-color:#D5AE91"/>
		<stop  offset="1" style="stop-color:#9E7563"/>
	</linearGradient>
	<polygon class="st5" points="205.8,51.4 207,53 205.8,54 204.5,52.4 	"/>
</g>
<g>
	<defs>
		<rect id="SVGID_19_" x="185.4" y="43.5" width="5.1" height="32.5"/>
	</defs>
	<clipPath id="SVGID_20_">
		<use xlink:href="#SVGID_19_"  style="overflow:visible;"/>
	</clipPath>
	
		<linearGradient id="SVGID_21_" gradientUnits="userSpaceOnUse" x1="-611.999" y1="621.43" x2="-610.999" y2="621.43" gradientTransform="matrix(169.193 211.0552 211.0552 -169.193 -27492.9531 234278.4688)">
		<stop  offset="0" style="stop-color:#D5AE91"/>
		<stop  offset="1" style="stop-color:#9E7563"/>
	</linearGradient>
	<polygon class="st6" points="188.6,41 206.4,63.2 187.4,78.5 169.6,56.2 	"/>
</g>
<g>
	<defs>
		<path id="SVGID_22_" d="M185.4,84.1v43.2c0,0-0.1,2.4-3.4,2.4v1.6h12v-1.6c-3.1,0-3.4-2.1-3.4-2.4V84.1H185.4z"/>
	</defs>
	<clipPath id="SVGID_23_">
		<use xlink:href="#SVGID_22_"  style="overflow:visible;"/>
	</clipPath>
	
		<linearGradient id="SVGID_24_" gradientUnits="userSpaceOnUse" x1="-611.999" y1="621.4349" x2="-610.999" y2="621.4349" gradientTransform="matrix(169.193 211.0552 211.0552 -169.193 -27517.4219 234298.0781)">
		<stop  offset="0" style="stop-color:#D5AE91"/>
		<stop  offset="1" style="stop-color:#9E7563"/>
	</linearGradient>
	<polygon class="st7" points="189.3,78.3 217,112.9 186.7,137.2 159,102.6 	"/>
</g>
<g>
	<defs>
		<rect id="SVGID_25_" x="165.1" y="118.7" width="5.1" height="0"/>
	</defs>
	<clipPath id="SVGID_26_">
		<use xlink:href="#SVGID_25_"  style="overflow:visible;"/>
	</clipPath>
	
		<linearGradient id="SVGID_27_" gradientUnits="userSpaceOnUse" x1="-611.999" y1="621.43" x2="-610.999" y2="621.43" gradientTransform="matrix(169.193 211.0552 211.0552 -169.193 -27534.0996 234311.4531)">
		<stop  offset="0" style="stop-color:#D5AE91"/>
		<stop  offset="1" style="stop-color:#9E7563"/>
	</linearGradient>
	<polygon class="st8" points="168.2,116.2 170.3,118.7 167.1,121.2 165.1,118.7 	"/>
</g>
<g>
	<defs>
		<path id="SVGID_28_" d="M210.1,46.5c0,0,0,0.1,0,0.1c0,0,0,0,0,0c0,0,0,0,0,0C210.1,46.6,210.1,46.6,210.1,46.5c0,0,0,0,0-0.1
			C210.1,46.4,210.1,46.4,210.1,46.5"/>
	</defs>
	<clipPath id="SVGID_29_">
		<use xlink:href="#SVGID_28_"  style="overflow:visible;"/>
	</clipPath>
	
		<linearGradient id="SVGID_30_" gradientUnits="userSpaceOnUse" x1="-611.999" y1="621.43" x2="-610.999" y2="621.43" gradientTransform="matrix(169.193 211.0552 211.0552 -169.193 -27473.043 234262.5156)">
		<stop  offset="0" style="stop-color:#D5AE91"/>
		<stop  offset="1" style="stop-color:#9E7563"/>
	</linearGradient>
	<polygon class="st9" points="210.1,46.3 210.3,46.5 210.1,46.7 210,46.5 	"/>
</g>
<g>
	<defs>
		<path id="SVGID_31_" d="M210.5,47.8c-0.1-0.2-0.1-0.5-0.2-0.7C210.4,47.3,210.4,47.6,210.5,47.8"/>
	</defs>
	<clipPath id="SVGID_32_">
		<use xlink:href="#SVGID_31_"  style="overflow:visible;"/>
	</clipPath>
	
		<linearGradient id="SVGID_33_" gradientUnits="userSpaceOnUse" x1="-611.999" y1="621.43" x2="-610.999" y2="621.43" gradientTransform="matrix(169.193 211.0552 211.0552 -169.193 -27473.3418 234262.75)">
		<stop  offset="0" style="stop-color:#D5AE91"/>
		<stop  offset="1" style="stop-color:#9E7563"/>
	</linearGradient>
	<polygon class="st10" points="210.4,47 210.8,47.5 210.4,47.9 210,47.4 	"/>
</g>
<g>
	<defs>
		<path id="SVGID_34_" d="M208,76.4c0.2-0.2,0.4-0.5,0.6-0.7C208.4,76,208.2,76.2,208,76.4"/>
	</defs>
	<clipPath id="SVGID_35_">
		<use xlink:href="#SVGID_34_"  style="overflow:visible;"/>
	</clipPath>
	
		<linearGradient id="SVGID_36_" gradientUnits="userSpaceOnUse" x1="-611.999" y1="621.43" x2="-610.999" y2="621.43" gradientTransform="matrix(169.193 211.0552 211.0552 -169.193 -27488.6074 234274.9844)">
		<stop  offset="0" style="stop-color:#D5AE91"/>
		<stop  offset="1" style="stop-color:#9E7563"/>
	</linearGradient>
	<polygon class="st11" points="208.3,75.4 208.9,76.2 208.2,76.7 207.6,76 	"/>
</g>
<g>
	<defs>
		<path id="SVGID_37_" d="M209.5,74.1c0.1-0.2,0.2-0.4,0.3-0.6C209.7,73.8,209.6,74,209.5,74.1"/>
	</defs>
	<clipPath id="SVGID_38_">
		<use xlink:href="#SVGID_37_"  style="overflow:visible;"/>
	</clipPath>
	
		<linearGradient id="SVGID_39_" gradientUnits="userSpaceOnUse" x1="-611.999" y1="621.43" x2="-610.999" y2="621.43" gradientTransform="matrix(169.193 211.0552 211.0552 -169.193 -27486.6953 234273.4531)">
		<stop  offset="0" style="stop-color:#D5AE91"/>
		<stop  offset="1" style="stop-color:#9E7563"/>
	</linearGradient>
	<polygon class="st12" points="209.7,73.5 210,73.9 209.6,74.3 209.2,73.8 	"/>
</g>
<g>
	<defs>
		<path id="SVGID_40_" d="M209.8,73.6c0.1-0.2,0.2-0.4,0.2-0.6C209.9,73.2,209.8,73.4,209.8,73.6"/>
	</defs>
	<clipPath id="SVGID_41_">
		<use xlink:href="#SVGID_40_"  style="overflow:visible;"/>
	</clipPath>
	
		<linearGradient id="SVGID_42_" gradientUnits="userSpaceOnUse" x1="-611.999" y1="621.43" x2="-610.999" y2="621.43" gradientTransform="matrix(169.193 211.0552 211.0552 -169.193 -27486.2637 234273.1094)">
		<stop  offset="0" style="stop-color:#D5AE91"/>
		<stop  offset="1" style="stop-color:#9E7563"/>
	</linearGradient>
	<polygon class="st13" points="209.9,72.9 210.3,73.4 209.9,73.7 209.5,73.2 	"/>
</g>
<g>
	<defs>
		<path id="SVGID_43_" d="M210,73c0.1-0.2,0.1-0.4,0.2-0.6C210.2,72.6,210.1,72.8,210,73"/>
	</defs>
	<clipPath id="SVGID_44_">
		<use xlink:href="#SVGID_43_"  style="overflow:visible;"/>
	</clipPath>
	
		<linearGradient id="SVGID_45_" gradientUnits="userSpaceOnUse" x1="-611.999" y1="621.43" x2="-610.999" y2="621.43" gradientTransform="matrix(169.193 211.0552 211.0552 -169.193 -27485.8438 234272.7656)">
		<stop  offset="0" style="stop-color:#D5AE91"/>
		<stop  offset="1" style="stop-color:#9E7563"/>
	</linearGradient>
	<polygon class="st14" points="210.1,72.3 210.5,72.8 210.1,73.1 209.7,72.7 	"/>
</g>
<g>
	<defs>
		<path id="SVGID_46_" d="M210.7,70.7c0-0.2,0.1-0.4,0.1-0.6C210.7,70.3,210.7,70.5,210.7,70.7"/>
	</defs>
	<clipPath id="SVGID_47_">
		<use xlink:href="#SVGID_46_"  style="overflow:visible;"/>
	</clipPath>
	
		<linearGradient id="SVGID_48_" gradientUnits="userSpaceOnUse" x1="-611.999" y1="621.43" x2="-610.999" y2="621.43" gradientTransform="matrix(169.193 211.0552 211.0552 -169.193 -27484.332 234271.5625)">
		<stop  offset="0" style="stop-color:#D5AE91"/>
		<stop  offset="1" style="stop-color:#9E7563"/>
	</linearGradient>
	<polygon class="st15" points="210.7,70 211.1,70.5 210.7,70.7 210.4,70.3 	"/>
</g>
<g>
	<defs>
		<path id="SVGID_49_" d="M210.8,69.9c0-0.2,0-0.4,0.1-0.6C210.8,69.5,210.8,69.7,210.8,69.9"/>
	</defs>
	<clipPath id="SVGID_50_">
		<use xlink:href="#SVGID_49_"  style="overflow:visible;"/>
	</clipPath>
	
		<linearGradient id="SVGID_51_" gradientUnits="userSpaceOnUse" x1="-611.999" y1="621.43" x2="-610.999" y2="621.43" gradientTransform="matrix(169.193 211.0552 211.0552 -169.193 -27483.8809 234271.2031)">
		<stop  offset="0" style="stop-color:#D5AE91"/>
		<stop  offset="1" style="stop-color:#9E7563"/>
	</linearGradient>
	<polygon class="st16" points="210.8,69.3 211.2,69.7 210.8,69.9 210.5,69.5 	"/>
</g>
<g>
	<defs>
		<path id="SVGID_52_" d="M205.8,57v11.3c0,0.3,0,0.5,0,0.8c0,0.2,0,0.3-0.1,0.5c0,0.2-0.1,0.3-0.1,0.5c0,0.1,0,0.2-0.1,0.2
			c0,0.1-0.1,0.3-0.1,0.4v0c-0.2,0.6-0.5,1.1-0.8,1.7v0c-0.1,0.2-0.3,0.4-0.4,0.6v0c-0.1,0.1-0.2,0.2-0.2,0.3
			c-0.2,0.2-0.3,0.4-0.5,0.5c-0.1,0.1-0.3,0.2-0.4,0.4c-0.2,0.2-0.4,0.3-0.6,0.4c-0.1,0.1-0.2,0.1-0.3,0.2c-0.1,0.1-0.2,0.1-0.3,0.2
			c-0.2,0.1-0.3,0.2-0.5,0.2c-0.2,0.1-0.3,0.1-0.5,0.2c-0.1,0-0.2,0.1-0.4,0.1c-0.1,0-0.1,0-0.2,0.1c-0.1,0-0.2,0.1-0.4,0.1
			c-0.5,0.1-1.1,0.2-1.7,0.2h-25.4v5.1h25.4c4.2,0,7.6,3.4,7.6,7.6V103h5.1V88.7c0-4.1-2-7.8-5.1-10.2c0,0,0,0,0,0
			c0.1,0,0.1-0.1,0.2-0.1c0.1-0.1,0.2-0.1,0.2-0.2c0,0,0,0,0,0c0.1-0.1,0.1-0.1,0.2-0.2c0,0,0,0,0.1-0.1c0.1-0.1,0.1-0.1,0.2-0.2
			c0.1-0.1,0.1-0.1,0.2-0.2c0.2-0.2,0.3-0.3,0.5-0.5c0.1-0.1,0.1-0.1,0.2-0.2c0,0,0,0,0,0c0-0.1,0.1-0.1,0.1-0.2
			c0,0,0.1-0.1,0.1-0.1c0-0.1,0.1-0.1,0.1-0.2c0,0,0,0,0,0c0.2-0.2,0.4-0.5,0.6-0.7c0.1-0.1,0.1-0.2,0.2-0.3
			c0.1-0.1,0.1-0.2,0.2-0.3c0.1-0.1,0.1-0.2,0.2-0.3c0.1-0.1,0.1-0.2,0.2-0.3c0.1-0.1,0.1-0.2,0.2-0.3c0-0.1,0.1-0.2,0.1-0.3
			c0.1-0.2,0.2-0.4,0.3-0.6c0.1-0.2,0.2-0.4,0.2-0.6c0.1-0.2,0.1-0.4,0.2-0.6c0-0.1,0.1-0.2,0.1-0.3s0.1-0.2,0.1-0.3
			c0.1-0.3,0.1-0.5,0.2-0.8c0-0.1,0.1-0.3,0.1-0.4c0-0.2,0.1-0.4,0.1-0.6c0-0.1,0-0.1,0-0.2c0-0.2,0-0.4,0.1-0.6c0-0.1,0-0.3,0-0.4
			c0-0.1,0-0.1,0-0.2c0-0.1,0-0.2,0-0.3V57H205.8z"/>
	</defs>
	<clipPath id="SVGID_53_">
		<use xlink:href="#SVGID_52_"  style="overflow:visible;"/>
	</clipPath>
	
		<linearGradient id="SVGID_54_" gradientUnits="userSpaceOnUse" x1="-611.999" y1="621.4046" x2="-610.999" y2="621.4046" gradientTransform="matrix(169.193 211.0552 211.0552 -169.193 -27495.1875 234280.2656)">
		<stop  offset="0" style="stop-color:#D5AE91"/>
		<stop  offset="1" style="stop-color:#9E7563"/>
	</linearGradient>
	<polygon class="st17" points="196,38.4 233.3,85 187.7,121.6 150.3,75 	"/>
</g>
<g>
	<defs>
		<rect id="SVGID_55_" x="205.8" y="118.7" width="5.1" height="0"/>
	</defs>
	<clipPath id="SVGID_56_">
		<use xlink:href="#SVGID_55_"  style="overflow:visible;"/>
	</clipPath>
	
		<linearGradient id="SVGID_57_" gradientUnits="userSpaceOnUse" x1="-611.999" y1="621.43" x2="-610.999" y2="621.43" gradientTransform="matrix(169.193 211.0552 211.0552 -169.193 -27509.3613 234291.625)">
		<stop  offset="0" style="stop-color:#D5AE91"/>
		<stop  offset="1" style="stop-color:#9E7563"/>
	</linearGradient>
	<polygon class="st18" points="208.9,116.2 210.9,118.7 207.8,121.2 205.8,118.7 	"/>
</g>
<g>
	<defs>
		<rect id="SVGID_58_" x="165.1" y="57" width="5.1" height="46"/>
	</defs>
	<clipPath id="SVGID_59_">
		<use xlink:href="#SVGID_58_"  style="overflow:visible;"/>
	</clipPath>
	
		<linearGradient id="SVGID_60_" gradientUnits="userSpaceOnUse" x1="-611.999" y1="621.43" x2="-610.999" y2="621.43" gradientTransform="matrix(169.193 211.0552 211.0552 -169.193 -27515.2363 234296.3281)">
		<stop  offset="0" style="stop-color:#D5AE91"/>
		<stop  offset="1" style="stop-color:#9E7563"/>
	</linearGradient>
	<polygon class="st19" points="168.2,54.5 192.7,85 167.1,105.5 142.7,75 	"/>
</g>
<g>
	<defs>
		<path id="SVGID_61_" d="M165.1,111.2v3.6c-0.1,0.5-0.5,2.3-3.4,2.3v1.6h12V117c-3.3,0-3.4-2.4-3.4-2.4h0v-3.5H165.1z"/>
	</defs>
	<clipPath id="SVGID_62_">
		<use xlink:href="#SVGID_61_"  style="overflow:visible;"/>
	</clipPath>
	
		<linearGradient id="SVGID_63_" gradientUnits="userSpaceOnUse" x1="-611.999" y1="621.4349" x2="-610.999" y2="621.4349" gradientTransform="matrix(169.193 211.0552 211.0552 -169.193 -27533.3066 234310.8125)">
		<stop  offset="0" style="stop-color:#D5AE91"/>
		<stop  offset="1" style="stop-color:#9E7563"/>
	</linearGradient>
	<polygon class="st20" points="169,105.3 177.3,115.7 166.4,124.5 158,114.1 	"/>
</g>
<g>
	<defs>
		<path id="SVGID_64_" d="M205.4,48.5C205.4,48.5,205.4,48.6,205.4,48.5C205.4,48.5,205.4,48.5,205.4,48.5
			C205.4,48.5,205.4,48.5,205.4,48.5 M205.4,48.5C205.4,48.5,205.4,48.5,205.4,48.5c0-0.1,0-0.1,0-0.1
			C205.3,48.4,205.3,48.5,205.4,48.5"/>
	</defs>
	<clipPath id="SVGID_65_">
		<use xlink:href="#SVGID_64_"  style="overflow:visible;"/>
	</clipPath>
	
		<linearGradient id="SVGID_66_" gradientUnits="userSpaceOnUse" x1="-611.999" y1="621.43" x2="-610.999" y2="621.43" gradientTransform="matrix(169.193 211.0552 211.0552 -169.193 -27476.9121 234265.6094)">
		<stop  offset="0" style="stop-color:#D5AE91"/>
		<stop  offset="1" style="stop-color:#9E7563"/>
	</linearGradient>
	<polygon class="st21" points="205.4,48.4 205.5,48.5 205.3,48.6 205.2,48.5 	"/>
</g>
<g>
	<defs>
		<path id="SVGID_67_" d="M202.1,74.8c0.1-0.1,0.2-0.1,0.3-0.2C202.3,74.7,202.2,74.8,202.1,74.8"/>
	</defs>
	<clipPath id="SVGID_68_">
		<use xlink:href="#SVGID_67_"  style="overflow:visible;"/>
	</clipPath>
	
		<linearGradient id="SVGID_69_" gradientUnits="userSpaceOnUse" x1="-611.999" y1="621.43" x2="-610.999" y2="621.43" gradientTransform="matrix(169.193 211.0552 211.0552 -169.193 -27491.6172 234277.3906)">
		<stop  offset="0" style="stop-color:#D5AE91"/>
		<stop  offset="1" style="stop-color:#9E7563"/>
	</linearGradient>
	<polygon class="st22" points="202.3,74.5 202.5,74.8 202.2,75 202,74.7 	"/>
</g>
<g>
	<defs>
		<path id="SVGID_70_" d="M204.1,73c0.2-0.2,0.3-0.4,0.4-0.6C204.4,72.7,204.3,72.8,204.1,73"/>
	</defs>
	<clipPath id="SVGID_71_">
		<use xlink:href="#SVGID_70_"  style="overflow:visible;"/>
	</clipPath>
	
		<linearGradient id="SVGID_72_" gradientUnits="userSpaceOnUse" x1="-611.999" y1="621.43" x2="-610.999" y2="621.43" gradientTransform="matrix(169.193 211.0552 211.0552 -169.193 -27489.3633 234275.5938)">
		<stop  offset="0" style="stop-color:#D5AE91"/>
		<stop  offset="1" style="stop-color:#9E7563"/>
	</linearGradient>
	<polygon class="st23" points="204.4,72.2 204.8,72.8 204.3,73.2 203.8,72.7 	"/>
</g>
<g>
	<defs>
		<path id="SVGID_73_" d="M204.6,72.4c0.3-0.5,0.6-1.1,0.8-1.7C205.2,71.4,204.9,71.9,204.6,72.4"/>
	</defs>
	<clipPath id="SVGID_74_">
		<use xlink:href="#SVGID_73_"  style="overflow:visible;"/>
	</clipPath>
	
		<linearGradient id="SVGID_75_" gradientUnits="userSpaceOnUse" x1="-611.999" y1="621.43" x2="-610.999" y2="621.43" gradientTransform="matrix(169.193 211.0552 211.0552 -169.193 -27488.4434 234274.8594)">
		<stop  offset="0" style="stop-color:#D5AE91"/>
		<stop  offset="1" style="stop-color:#9E7563"/>
	</linearGradient>
	<polygon class="st24" points="205,70.4 206.2,71.8 204.9,72.8 203.7,71.4 	"/>
</g>
<g>
	<defs>
		<path id="SVGID_76_" d="M205.5,70.1c0-0.2,0.1-0.3,0.1-0.5C205.6,69.8,205.6,70,205.5,70.1"/>
	</defs>
	<clipPath id="SVGID_77_">
		<use xlink:href="#SVGID_76_"  style="overflow:visible;"/>
	</clipPath>
	
		<linearGradient id="SVGID_78_" gradientUnits="userSpaceOnUse" x1="-611.999" y1="621.43" x2="-610.999" y2="621.43" gradientTransform="matrix(169.193 211.0552 211.0552 -169.193 -27487.1992 234273.8594)">
		<stop  offset="0" style="stop-color:#D5AE91"/>
		<stop  offset="1" style="stop-color:#9E7563"/>
	</linearGradient>
	<polygon class="st25" points="205.6,69.6 205.9,69.9 205.6,70.2 205.3,69.8 	"/>
</g>
<g>
	<defs>
		<path id="SVGID_79_" d="M205.6,69.6c0-0.2,0.1-0.3,0.1-0.5C205.7,69.3,205.7,69.5,205.6,69.6"/>
	</defs>
	<clipPath id="SVGID_80_">
		<use xlink:href="#SVGID_79_"  style="overflow:visible;"/>
	</clipPath>
	
		<linearGradient id="SVGID_81_" gradientUnits="userSpaceOnUse" x1="-611.999" y1="621.43" x2="-610.999" y2="621.43" gradientTransform="matrix(169.193 211.0552 211.0552 -169.193 -27486.9063 234273.625)">
		<stop  offset="0" style="stop-color:#D5AE91"/>
		<stop  offset="1" style="stop-color:#9E7563"/>
	</linearGradient>
	<polygon class="st26" points="205.7,69.1 206,69.4 205.7,69.7 205.4,69.3 	"/>
</g>
<g>
	<defs>
		<path id="SVGID_82_" d="M205.4,48.9c0.1,0.2,0.1,0.4,0.1,0.6C205.5,49.3,205.5,49.1,205.4,48.9c0,0,0-0.1,0-0.1
			C205.4,48.8,205.4,48.8,205.4,48.9"/>
	</defs>
	<clipPath id="SVGID_83_">
		<use xlink:href="#SVGID_82_"  style="overflow:visible;"/>
	</clipPath>
	
		<linearGradient id="SVGID_84_" gradientUnits="userSpaceOnUse" x1="-611.999" y1="621.43" x2="-610.999" y2="621.43" gradientTransform="matrix(169.193 211.0552 211.0552 -169.193 -27477.1367 234265.7969)">
		<stop  offset="0" style="stop-color:#D5AE91"/>
		<stop  offset="1" style="stop-color:#9E7563"/>
	</linearGradient>
	<polygon class="st27" points="205.5,48.7 206,49.2 205.5,49.6 205.1,49.1 	"/>
</g>
<g>
	<defs>
		<path id="SVGID_85_" d="M205.4,48.9c0.1,0.2,0.1,0.4,0.1,0.6C205.5,49.3,205.5,49.1,205.4,48.9h-12.4V54h12.7v-2.7
			c0,0,0,0.1,0,0.1V54h12.7c4.2,0,7.6,3.4,7.6,7.6c0,0.2-0.2,2.4-3.4,2.4v1.6h8.5v-4h0c0-7-5.7-12.7-12.7-12.7H205.4z"/>
	</defs>
	<clipPath id="SVGID_86_">
		<use xlink:href="#SVGID_85_"  style="overflow:visible;"/>
	</clipPath>
	
		<linearGradient id="SVGID_87_" gradientUnits="userSpaceOnUse" x1="-611.999" y1="621.4261" x2="-610.999" y2="621.4261" gradientTransform="matrix(169.193 211.0552 211.0552 -169.193 -27476.2559 234265.0781)">
		<stop  offset="0" style="stop-color:#D5AE91"/>
		<stop  offset="1" style="stop-color:#9E7563"/>
	</linearGradient>
	<polygon class="st28" points="216.2,30.3 239.3,59.1 208,84.2 184.9,55.4 	"/>
</g>
<g>
	<defs>
		<path id="SVGID_88_" d="M182,25.4v1.6c3.3,0,3.4,2.4,3.4,2.4v5.9h5.1v-5.9h0c0,0,0.1-2.4,3.4-2.4v-1.6H182z"/>
	</defs>
	<clipPath id="SVGID_89_">
		<use xlink:href="#SVGID_88_"  style="overflow:visible;"/>
	</clipPath>
	
		<linearGradient id="SVGID_90_" gradientUnits="userSpaceOnUse" x1="-611.999" y1="621.425" x2="-610.999" y2="621.425" gradientTransform="matrix(169.193 211.0552 211.0552 -169.193 -27477.5938 234266.1563)">
		<stop  offset="0" style="stop-color:#D5AE91"/>
		<stop  offset="1" style="stop-color:#9E7563"/>
	</linearGradient>
	<polygon class="st29" points="189.3,19.6 198.8,31.4 186.7,41.2 177.2,29.3 	"/>
</g>
<g>
	<defs>
		<path id="SVGID_91_" d="M161,35.3v1.9c4,0,4,2.8,4,2.8h0v8.8h5.1v-8.4h24.5c3,0,5.8,1.2,7.8,3.2c0.4,0.4,0.8,0.9,1.2,1.4
			c0,0,0,0,0,0c0.1,0.1,0.1,0.2,0.2,0.3c0.1,0.2,0.2,0.4,0.3,0.6c0.1,0.1,0.1,0.2,0.2,0.3c0,0.1,0.1,0.2,0.1,0.2
			c0.1,0.2,0.2,0.3,0.2,0.5c0.1,0.3,0.3,0.7,0.4,1c0,0.1,0.1,0.2,0.1,0.2c0,0.1,0,0.1,0.1,0.2c0,0,0,0,0,0c0,0,0,0.1,0,0.1
			c0,0,0,0,0,0c0,0,0,0,0,0c0,0,0,0,0,0c0,0,0,0,0,0c0,0,0,0,0,0c0,0,0,0,0,0c0,0,0,0,0,0c0,0,0,0,0,0.1c0,0,0,0.1,0,0.1h5.2
			c0-0.1,0-0.2-0.1-0.3c0-0.1,0-0.1,0-0.2c0-0.1,0-0.2-0.1-0.3c0-0.1,0-0.2-0.1-0.3c-0.1-0.2-0.1-0.5-0.2-0.7c0-0.1-0.1-0.2-0.1-0.3
			c0,0,0-0.1,0-0.1c0,0,0,0,0,0c0,0,0,0,0-0.1c0,0,0,0,0,0c0,0,0-0.1,0-0.1c0,0,0-0.1,0-0.1c0-0.1-0.1-0.2-0.1-0.3l0,0
			c-0.1-0.2-0.1-0.4-0.2-0.6l0,0c-0.1-0.2-0.2-0.5-0.3-0.7c0-0.1-0.1-0.1-0.1-0.2c-0.1-0.1-0.1-0.2-0.2-0.4l0,0
			c-0.1-0.1-0.1-0.2-0.2-0.3l0,0c-0.1-0.1-0.1-0.2-0.2-0.3c0-0.1-0.1-0.1-0.1-0.2c-0.1-0.1-0.1-0.2-0.2-0.3
			c-0.1-0.1-0.1-0.2-0.2-0.3c-0.1-0.1-0.1-0.2-0.2-0.3c-0.1-0.1-0.1-0.2-0.2-0.3c-0.1-0.1-0.2-0.2-0.2-0.3c-0.1-0.2-0.2-0.3-0.4-0.5
			c-0.1-0.1-0.2-0.2-0.2-0.3c-0.8-0.9-1.7-1.8-2.7-2.5c-0.1-0.1-0.2-0.1-0.2-0.2c-0.2-0.1-0.4-0.3-0.5-0.4c-0.1-0.1-0.3-0.2-0.4-0.3
			c0,0-0.1-0.1-0.1-0.1c-0.1-0.1-0.2-0.1-0.3-0.2c-0.1-0.1-0.2-0.1-0.3-0.2c-0.1-0.1-0.2-0.1-0.3-0.2c-0.3-0.2-0.6-0.3-0.9-0.4
			c-0.1-0.1-0.2-0.1-0.4-0.2c-1.9-0.8-3.9-1.2-6.1-1.2H161z"/>
	</defs>
	<clipPath id="SVGID_92_">
		<use xlink:href="#SVGID_91_"  style="overflow:visible;"/>
	</clipPath>
	
		<linearGradient id="SVGID_93_" gradientUnits="userSpaceOnUse" x1="-611.999" y1="621.4359" x2="-610.999" y2="621.4359" gradientTransform="matrix(169.193 211.0552 211.0552 -169.193 -27486.9063 234273.625)">
		<stop  offset="0" style="stop-color:#D5AE91"/>
		<stop  offset="1" style="stop-color:#9E7563"/>
	</linearGradient>
	<polygon class="st30" points="191.3,11.1 217.3,43.6 180.5,73.1 154.4,40.6 	"/>
</g>
<g>
	<defs>
		<path id="SVGID_94_" d="M210.2,46.6C210.2,46.6,210.2,46.6,210.2,46.6C210.1,46.6,210.1,46.6,210.2,46.6
			C210.1,46.6,210.2,46.6,210.2,46.6"/>
	</defs>
	<clipPath id="SVGID_95_">
		<use xlink:href="#SVGID_94_"  style="overflow:visible;"/>
	</clipPath>
	
		<linearGradient id="SVGID_96_" gradientUnits="userSpaceOnUse" x1="-611.999" y1="621.43" x2="-610.999" y2="621.43" gradientTransform="matrix(169.193 211.0552 211.0552 -169.193 -27473.0742 234262.5313)">
		<stop  offset="0" style="stop-color:#D5AE91"/>
		<stop  offset="1" style="stop-color:#9E7563"/>
	</linearGradient>
	<polygon class="st31" points="210.2,46.6 210.2,46.6 210.2,46.6 210.1,46.6 	"/>
</g>
<g>
	<defs>
		<path id="SVGID_97_" d="M205.8,111.2v3.5c0,0-0.1,2.4-3.4,2.4v1.6h12V117c-3.1,0-3.4-2.1-3.4-2.4v-3.5H205.8z"/>
	</defs>
	<clipPath id="SVGID_98_">
		<use xlink:href="#SVGID_97_"  style="overflow:visible;"/>
	</clipPath>
	
		<linearGradient id="SVGID_99_" gradientUnits="userSpaceOnUse" x1="-611.999" y1="621.4349" x2="-610.999" y2="621.4349" gradientTransform="matrix(169.193 211.0552 211.0552 -169.193 -27508.5703 234290.9844)">
		<stop  offset="0" style="stop-color:#D5AE91"/>
		<stop  offset="1" style="stop-color:#9E7563"/>
	</linearGradient>
	<polygon class="st32" points="209.6,105.3 218,115.7 207,124.5 198.7,114.1 	"/>
</g>
<g>
	<defs>
		<path id="SVGID_100_" d="M5.2,183.2c-0.9,0.3-1.7,0.8-2.4,1.3c-0.7,0.6-1.2,1.3-1.6,2.1c-0.4,0.8-0.6,1.8-0.6,2.8
			c0,1.4,0.3,2.6,1,3.6c0.7,1,1.6,2,2.6,2.9c1.1,0.9,2.2,1.8,3.4,2.6c1.2,0.8,2.4,1.7,3.4,2.6c1.1,0.9,1.9,2,2.6,3.1
			c0.7,1.1,1,2.5,1,3.9c0,0.7-0.1,1.4-0.4,2c-0.3,0.6-0.6,1.1-1.1,1.5c-0.4,0.4-1,0.8-1.5,1c-0.6,0.2-1.1,0.3-1.7,0.3
			c-1.3,0-2.5-0.2-3.6-0.7c-1.1-0.4-2.1-1.1-3-2.1c-0.9-0.9-1.5-2.1-2-3.6c-0.5-1.4-0.7-3.2-0.7-5.2H0v11.5h0.4c0-0.2,0-0.4,0.2-0.7
			c0.1-0.3,0.2-0.5,0.4-0.7s0.3-0.4,0.5-0.5c0.2-0.1,0.4-0.2,0.7-0.2c0.4,0,0.8,0.2,1.2,0.5c0.4,0.3,1,0.6,1.6,1
			c0.6,0.3,1.4,0.7,2.3,1c0.9,0.3,2,0.5,3.2,0.5c1,0,1.9-0.2,2.8-0.5c0.9-0.3,1.8-0.7,2.5-1.4c0.7-0.6,1.3-1.4,1.8-2.4
			c0.4-1,0.7-2.2,0.7-3.5c0-1.6-0.3-2.9-1-4.1c-0.7-1.2-1.6-2.2-2.6-3.2c-1-1-2.2-1.8-3.4-2.7c-1.2-0.8-2.3-1.7-3.4-2.5
			c-1-0.8-1.9-1.7-2.6-2.7c-0.7-1-1-2-1-3.3c0-0.6,0.1-1.2,0.4-1.7c0.2-0.5,0.6-1,1-1.4c0.4-0.4,0.9-0.8,1.4-1
			c0.5-0.2,1.1-0.4,1.7-0.4c0.8,0,1.7,0.2,2.7,0.5c0.9,0.4,1.8,1,2.6,1.9c0.8,0.9,1.5,2.1,2,3.6c0.5,1.5,0.8,3.4,0.8,5.6h0.7v-11.5
			h-0.5c0,0.2,0,0.4-0.1,0.6c-0.1,0.2-0.2,0.5-0.3,0.7c-0.1,0.2-0.3,0.4-0.5,0.6c-0.2,0.2-0.4,0.2-0.5,0.2c-0.3,0-0.7-0.1-1-0.4
			c-0.3-0.3-0.8-0.6-1.3-1c-0.6-0.4-1.2-0.7-2-1c-0.8-0.3-1.8-0.4-3-0.4C7.1,182.8,6.1,182.9,5.2,183.2"/>
	</defs>
	<clipPath id="SVGID_101_">
		<use xlink:href="#SVGID_100_"  style="overflow:visible;"/>
	</clipPath>
	
		<linearGradient id="SVGID_102_" gradientUnits="userSpaceOnUse" x1="-611.999" y1="621.4301" x2="-610.999" y2="621.4301" gradientTransform="matrix(321.7315 27.3472 27.3472 -321.7315 179929.9688 216869.8281)">
		<stop  offset="0" style="stop-color:#D5AE91"/>
		<stop  offset="1" style="stop-color:#9E7563"/>
	</linearGradient>
	<polygon class="st33" points="0.1,181.2 20.9,183 18.1,215.5 -2.6,213.7 	"/>
</g>
<g>
	<defs>
		<path id="SVGID_103_" d="M22.8,183.2c0,0-0.1,0.4-0.2,1.1c-0.1,0.7-0.3,1.6-0.4,2.5c-0.2,1-0.4,2.2-0.7,3.5
			c0.1,0.1,0.2,0.1,0.3,0.2c0.1,0.1,0.2,0.1,0.3,0.2c0.3-1.7,0.7-3.1,1.3-4c0.5-0.9,1.2-1.6,1.9-2c0.7-0.4,1.6-0.6,2.5-0.7
			c1-0.1,2-0.1,3.2-0.1v26.3c0,0.9-0.2,1.6-0.5,2.1c-0.3,0.5-0.8,0.8-1.3,1v0.3h7.2v-0.4c-0.6,0-1-0.3-1.3-0.8
			c-0.3-0.5-0.5-1.2-0.5-2.2v-26.3c1.1,0,2.1,0,3,0c1,0,1.8,0.2,2.6,0.7c0.8,0.4,1.4,1.1,2,2c0.6,0.9,1,2.3,1.4,4.1
			c0.1-0.1,0.2-0.1,0.3-0.2c0.1-0.1,0.2-0.1,0.3-0.2c-0.3-1.3-0.5-2.5-0.6-3.6c-0.2-0.9-0.3-1.7-0.5-2.4c-0.1-0.7-0.2-1.1-0.2-1.1
			H22.8z"/>
	</defs>
	<clipPath id="SVGID_104_">
		<use xlink:href="#SVGID_103_"  style="overflow:visible;"/>
	</clipPath>
	
		<linearGradient id="SVGID_105_" gradientUnits="userSpaceOnUse" x1="-611.999" y1="621.4291" x2="-610.999" y2="621.4291" gradientTransform="matrix(321.7315 27.3472 27.3472 -321.7315 179930.1563 216867.5)">
		<stop  offset="0" style="stop-color:#D5AE91"/>
		<stop  offset="1" style="stop-color:#9E7563"/>
	</linearGradient>
	<polygon class="st34" points="21.6,181.3 46.6,183.4 43.9,215.4 18.9,213.3 	"/>
</g>
<g>
	<defs>
		<path id="SVGID_106_" d="M56.1,188.2c0.3,1,0.6,2,1,3.2c0.3,1.2,0.7,2.4,1.1,3.6c0.4,1.3,0.8,2.5,1.1,3.8c0.4,1.3,0.8,2.5,1.1,3.6
			h-8.8L56.1,188.2z M57.9,183.7c-0.2,0.3-0.5,0.7-0.8,1c-0.3,0.3-0.6,0.6-0.9,0.9c-0.3,0.3-0.6,0.4-0.8,0.6l0.3,1l-7.6,23.1
			c-0.4,1.1-0.8,1.8-1.4,2.2c-0.5,0.4-1.1,0.6-1.6,0.8c0,0.1,0.2,0.2,0.7,0.3c0.5,0,1,0.1,1.6,0.1h1.7c0.5,0,0.9,0,1,0
			c-0.1-0.2-0.3-0.3-0.5-0.4c-0.2-0.1-0.4-0.2-0.5-0.3c-0.2-0.1-0.3-0.3-0.4-0.5c-0.1-0.2-0.2-0.4-0.2-0.8c0-0.2,0.1-0.5,0.2-1
			l2.4-7.4h9.3c0.2,0.8,0.5,1.6,0.8,2.4c0.3,0.8,0.5,1.6,0.8,2.3c0.2,0.7,0.4,1.4,0.6,2c0.1,0.6,0.2,1.1,0.2,1.5
			c0,0.6-0.2,1.1-0.5,1.3c-0.3,0.3-0.7,0.5-1.1,0.6v0.3h8.2c-0.2-0.2-0.4-0.3-0.7-0.5c-0.2-0.2-0.5-0.4-0.7-0.6
			c-0.2-0.2-0.5-0.5-0.7-0.9c-0.2-0.3-0.4-0.8-0.5-1.3l-8.4-27.4C58.3,183,58.2,183.3,57.9,183.7"/>
	</defs>
	<clipPath id="SVGID_107_">
		<use xlink:href="#SVGID_106_"  style="overflow:visible;"/>
	</clipPath>
	
		<linearGradient id="SVGID_108_" gradientUnits="userSpaceOnUse" x1="-611.999" y1="621.4312" x2="-610.999" y2="621.4312" gradientTransform="matrix(321.7315 27.3472 27.3472 -321.7315 179930.2969 216865.9219)">
		<stop  offset="0" style="stop-color:#D5AE91"/>
		<stop  offset="1" style="stop-color:#9E7563"/>
	</linearGradient>
	<polygon class="st35" points="45.4,180.7 72,183 69.3,215.6 42.6,213.4 	"/>
</g>
<g>
	<defs>
		<path id="SVGID_109_" d="M78.2,183.8h5.2c0.5,0,1,0.1,1.6,0.4c0.5,0.3,1,0.7,1.4,1.3c0.4,0.6,0.8,1.5,1.1,2.5
			c0.3,1.1,0.4,2.4,0.4,4c0,1.5-0.1,2.8-0.4,3.9c-0.3,1-0.6,1.9-1,2.5c-0.4,0.6-0.8,1.1-1.3,1.3c-0.5,0.3-0.9,0.4-1.4,0.4h-5.5
			V183.8z M72.8,183.2v0.3c0.5,0.1,1,0.5,1.3,1c0.3,0.5,0.5,1.2,0.5,2.2v23.6c0,0.9-0.2,1.6-0.5,2.1c-0.3,0.5-0.7,0.8-1.3,1v0.3h7.1
			v-0.3c-0.5-0.1-1-0.5-1.3-1c-0.3-0.5-0.5-1.2-0.5-2.1v-9.4h3.7c0.8,0,1.4,0.2,1.9,0.6c0.5,0.4,0.9,1,1.3,1.8
			c0.3,0.8,0.7,1.8,1,3.1c0.3,1.3,0.6,2.8,1,4.6c0.1,0.2,0.1,0.4,0.1,0.6c0,0.4-0.1,0.8-0.4,1.1c-0.3,0.4-0.6,0.6-1,0.7v0.3h7.9
			v-0.3c-0.6-0.1-1.1-0.6-1.7-1.3c-0.5-0.7-1-1.6-1.3-2.5c-0.3-1.2-0.7-2.3-1-3.2c-0.3-1-0.6-1.8-1-2.5c-0.4-0.7-0.9-1.4-1.4-1.8
			s-1.3-0.9-2.1-1.2c1-0.1,1.9-0.4,2.7-0.8c0.8-0.4,1.6-0.9,2.2-1.6c0.6-0.7,1.1-1.6,1.4-2.6c0.3-1,0.5-2.2,0.5-3.6
			c0-1.5-0.2-2.8-0.6-3.9c-0.4-1.1-1-2.1-1.8-2.8c-0.8-0.7-1.6-1.3-2.6-1.6c-1-0.4-2.1-0.5-3.3-0.5H72.8z"/>
	</defs>
	<clipPath id="SVGID_110_">
		<use xlink:href="#SVGID_109_"  style="overflow:visible;"/>
	</clipPath>
	
		<linearGradient id="SVGID_111_" gradientUnits="userSpaceOnUse" x1="-611.999" y1="621.4313" x2="-610.999" y2="621.4313" gradientTransform="matrix(321.7315 27.3472 27.3472 -321.7315 179930.4531 216863.9219)">
		<stop  offset="0" style="stop-color:#D5AE91"/>
		<stop  offset="1" style="stop-color:#9E7563"/>
	</linearGradient>
	<polygon class="st36" points="72.9,181.4 96,183.4 93.3,215.3 70.2,213.3 	"/>
</g>
<g>
	<defs>
		<path id="SVGID_112_" d="M96.9,183.2c0,0-0.1,0.4-0.2,1.1c-0.1,0.7-0.3,1.6-0.4,2.5c-0.2,1-0.4,2.2-0.7,3.5
			c0.1,0.1,0.2,0.1,0.3,0.2c0.1,0.1,0.2,0.1,0.3,0.2c0.3-1.7,0.7-3.1,1.3-4c0.5-0.9,1.2-1.6,1.9-2c0.7-0.4,1.6-0.6,2.5-0.7
			c1-0.1,2-0.1,3.2-0.1v26.3c0,0.9-0.2,1.6-0.5,2.1c-0.3,0.5-0.8,0.8-1.3,1v0.3h7.2v-0.4c-0.6,0-1-0.3-1.3-0.8
			c-0.3-0.5-0.5-1.2-0.5-2.2v-26.3c1.1,0,2.1,0,3,0c1,0,1.8,0.2,2.6,0.7c0.8,0.4,1.4,1.1,2,2c0.6,0.9,1,2.3,1.4,4.1
			c0.1-0.1,0.2-0.1,0.3-0.2c0.1-0.1,0.2-0.1,0.3-0.2c-0.3-1.3-0.5-2.5-0.6-3.6c-0.2-0.9-0.3-1.7-0.5-2.4c-0.1-0.7-0.2-1.1-0.2-1.1
			H96.9z"/>
	</defs>
	<clipPath id="SVGID_113_">
		<use xlink:href="#SVGID_112_"  style="overflow:visible;"/>
	</clipPath>
	
		<linearGradient id="SVGID_114_" gradientUnits="userSpaceOnUse" x1="-611.999" y1="621.4291" x2="-610.999" y2="621.4291" gradientTransform="matrix(321.7315 27.3472 27.3472 -321.7315 179930.6875 216861.2344)">
		<stop  offset="0" style="stop-color:#D5AE91"/>
		<stop  offset="1" style="stop-color:#9E7563"/>
	</linearGradient>
	<polygon class="st37" points="95.8,181.3 120.8,183.4 118,215.4 93,213.3 	"/>
</g>
<g>
	<defs>
		<path id="SVGID_115_" d="M139.9,183.8h5.2c0.5,0,1,0.1,1.6,0.4c0.5,0.3,1,0.7,1.4,1.3c0.4,0.6,0.8,1.5,1.1,2.5
			c0.3,1.1,0.4,2.4,0.4,4c0,1.5-0.1,2.8-0.4,3.9c-0.3,1-0.6,1.9-1,2.5c-0.4,0.6-0.8,1.1-1.3,1.3c-0.5,0.3-0.9,0.4-1.4,0.4h-5.5
			V183.8z M134.6,183.2v0.3c0.5,0.1,1,0.5,1.3,1c0.3,0.5,0.5,1.2,0.5,2.2v23.6c0,0.9-0.2,1.6-0.5,2.1c-0.3,0.5-0.7,0.8-1.3,1v0.3
			h7.1v-0.3c-0.5-0.1-1-0.5-1.3-1c-0.3-0.5-0.5-1.2-0.5-2.1v-9.4h3.7c0.8,0,1.4,0.2,1.9,0.6c0.5,0.4,0.9,1,1.3,1.8
			c0.3,0.8,0.7,1.8,1,3.1c0.3,1.3,0.6,2.8,1,4.6c0.1,0.2,0.1,0.4,0.1,0.6c0,0.4-0.1,0.8-0.4,1.1c-0.3,0.4-0.6,0.6-1,0.7v0.3h7.9
			v-0.3c-0.6-0.1-1.1-0.6-1.7-1.3c-0.5-0.7-1-1.6-1.3-2.5c-0.3-1.2-0.7-2.3-1-3.2c-0.3-1-0.7-1.8-1-2.5c-0.4-0.7-0.9-1.4-1.4-1.8
			c-0.6-0.5-1.3-0.9-2.1-1.2c1-0.1,1.9-0.4,2.7-0.8c0.8-0.4,1.6-0.9,2.2-1.6c0.6-0.7,1.1-1.6,1.4-2.6c0.3-1,0.5-2.2,0.5-3.6
			c0-1.5-0.2-2.8-0.6-3.9c-0.4-1.1-1-2.1-1.8-2.8c-0.8-0.7-1.6-1.3-2.6-1.6c-1-0.4-2.1-0.5-3.3-0.5H134.6z"/>
	</defs>
	<clipPath id="SVGID_116_">
		<use xlink:href="#SVGID_115_"  style="overflow:visible;"/>
	</clipPath>
	
		<linearGradient id="SVGID_117_" gradientUnits="userSpaceOnUse" x1="-611.999" y1="621.4313" x2="-610.999" y2="621.4313" gradientTransform="matrix(321.7315 27.3472 27.3472 -321.7315 179930.9063 216858.7188)">
		<stop  offset="0" style="stop-color:#D5AE91"/>
		<stop  offset="1" style="stop-color:#9E7563"/>
	</linearGradient>
	<polygon class="st38" points="134.7,181.4 157.8,183.4 155.1,215.3 132,213.3 	"/>
</g>
<g>
	<defs>
		<path id="SVGID_118_" d="M158.5,183.2v0.3c0.5,0.1,1,0.5,1.3,1c0.3,0.5,0.5,1.2,0.5,2.1v23.6c0,0.9-0.2,1.6-0.5,2.1
			c-0.3,0.5-0.7,0.8-1.3,1v0.3h17.8c0-0.1,0.1-0.3,0.1-0.4l0.6-3.5c0.2-1.1,0.4-2.6,0.8-4.6c-0.1-0.1-0.1-0.1-0.3-0.2
			c-0.1,0-0.2-0.1-0.3-0.2c-0.1,0.7-0.4,1.5-0.7,2.4c-0.3,0.9-0.7,1.8-1.3,2.7c-0.6,0.9-1.3,1.6-2.3,2.2c-0.9,0.6-2.1,0.9-3.5,0.9
			h-5.6v-15h4.5c0.4,0,0.8,0.1,1.2,0.3c0.4,0.2,0.7,0.5,0.9,0.8c0.3,0.3,0.5,0.6,0.6,1c0.2,0.3,0.3,0.7,0.3,1h0.3v-6.7h-0.3
			c-0.1,0.3-0.2,0.7-0.3,1c-0.2,0.3-0.4,0.7-0.6,1c-0.3,0.3-0.6,0.6-0.9,0.8c-0.4,0.2-0.8,0.3-1.2,0.3h-4.5v-13.3h5.6
			c1.4,0,2.5,0.3,3.4,0.8c0.8,0.6,1.5,1.2,1.9,2c0.4,0.8,0.7,1.5,0.9,2.3c0.1,0.8,0.3,1.3,0.3,1.6l0.3-0.2c0.1,0,0.2-0.1,0.3-0.2
			l-1.3-7.2H158.5z"/>
	</defs>
	<clipPath id="SVGID_119_">
		<use xlink:href="#SVGID_118_"  style="overflow:visible;"/>
	</clipPath>
	
		<linearGradient id="SVGID_120_" gradientUnits="userSpaceOnUse" x1="-611.999" y1="621.4303" x2="-610.999" y2="621.4303" gradientTransform="matrix(321.7315 27.3472 27.3472 -321.7315 179931.1094 216856.4531)">
		<stop  offset="0" style="stop-color:#D5AE91"/>
		<stop  offset="1" style="stop-color:#9E7563"/>
	</linearGradient>
	<polygon class="st39" points="158.7,181.5 180.4,183.4 177.7,215.2 156,213.3 	"/>
</g>
<g>
	<defs>
		<path id="SVGID_121_" d="M191.4,188.2c0.3,1,0.6,2,1,3.2c0.3,1.2,0.7,2.4,1.1,3.6c0.4,1.3,0.8,2.5,1.1,3.8
			c0.4,1.3,0.8,2.5,1.1,3.6h-8.8L191.4,188.2z M193.2,183.7c-0.2,0.3-0.5,0.7-0.8,1c-0.3,0.3-0.6,0.6-0.9,0.9
			c-0.3,0.3-0.6,0.4-0.8,0.6l0.3,1l-7.6,23.1c-0.4,1.1-0.8,1.8-1.4,2.2c-0.5,0.4-1.1,0.6-1.6,0.8c0,0.1,0.2,0.2,0.7,0.3
			c0.5,0,1,0.1,1.6,0.1h1.7c0.5,0,0.9,0,1,0c-0.1-0.2-0.3-0.3-0.5-0.4c-0.2-0.1-0.4-0.2-0.5-0.3c-0.2-0.1-0.3-0.3-0.4-0.5
			c-0.1-0.2-0.2-0.4-0.2-0.8c0-0.2,0.1-0.5,0.2-1l2.4-7.4h9.3c0.2,0.8,0.5,1.6,0.8,2.4c0.3,0.8,0.5,1.6,0.8,2.3
			c0.2,0.7,0.4,1.4,0.6,2c0.1,0.6,0.2,1.1,0.2,1.5c0,0.6-0.2,1.1-0.5,1.3c-0.3,0.3-0.7,0.5-1.2,0.6v0.3h8.2
			c-0.2-0.2-0.4-0.3-0.7-0.5c-0.2-0.2-0.5-0.4-0.7-0.6c-0.2-0.2-0.5-0.5-0.7-0.9c-0.2-0.3-0.4-0.8-0.5-1.3l-8.4-27.4
			C193.6,183,193.5,183.3,193.2,183.7"/>
	</defs>
	<clipPath id="SVGID_122_">
		<use xlink:href="#SVGID_121_"  style="overflow:visible;"/>
	</clipPath>
	
		<linearGradient id="SVGID_123_" gradientUnits="userSpaceOnUse" x1="-611.999" y1="621.4312" x2="-610.999" y2="621.4312" gradientTransform="matrix(321.7315 27.3472 27.3472 -321.7315 179931.2656 216854.5)">
		<stop  offset="0" style="stop-color:#D5AE91"/>
		<stop  offset="1" style="stop-color:#9E7563"/>
	</linearGradient>
	<polygon class="st40" points="180.7,180.7 207.3,183 204.6,215.6 177.9,213.4 	"/>
</g>
<g>
	<defs>
		<path id="SVGID_124_" d="M208.1,183.2v0.3c0.5,0.1,1,0.5,1.3,1c0.3,0.5,0.5,1.2,0.5,2.2v23.6c0,0.9-0.2,1.6-0.5,2.1
			c-0.3,0.5-0.7,0.8-1.3,1v0.3h18.8l1.3-7.3c-0.1-0.1-0.2-0.2-0.3-0.3c-0.1-0.1-0.2-0.1-0.3-0.2c-0.1,0.4-0.2,1-0.5,1.8
			c-0.2,0.8-0.7,1.6-1.2,2.4c-0.6,0.8-1.3,1.5-2.2,2.2c-0.9,0.6-2.1,0.9-3.6,0.9h-6.6v-26.5c0-1,0.2-1.7,0.5-2.2
			c0.3-0.5,0.7-0.8,1.3-1v-0.3H208.1z"/>
	</defs>
	<clipPath id="SVGID_125_">
		<use xlink:href="#SVGID_124_"  style="overflow:visible;"/>
	</clipPath>
	
		<linearGradient id="SVGID_126_" gradientUnits="userSpaceOnUse" x1="-611.999" y1="621.4317" x2="-610.999" y2="621.4317" gradientTransform="matrix(321.7315 27.3472 27.3472 -321.7315 179931.4219 216852.6719)">
		<stop  offset="0" style="stop-color:#D5AE91"/>
		<stop  offset="1" style="stop-color:#9E7563"/>
	</linearGradient>
	<polygon class="st41" points="208.2,181.5 230.7,183.4 228,215.2 205.5,213.3 	"/>
</g>
<g>
	<defs>
		<path id="SVGID_127_" d="M244,183.2v0.3c0.5,0.1,1,0.5,1.3,1c0.3,0.5,0.5,1.2,0.5,2.2v23.6c0,0.9-0.2,1.6-0.5,2.1
			c-0.3,0.5-0.7,0.8-1.3,1v0.3h7.1v-0.3c-0.5-0.1-1-0.5-1.3-1c-0.3-0.5-0.5-1.2-0.5-2.1v-23.6c0-1,0.2-1.7,0.5-2.2
			c0.3-0.5,0.7-0.8,1.3-1v-0.3H244z"/>
	</defs>
	<clipPath id="SVGID_128_">
		<use xlink:href="#SVGID_127_"  style="overflow:visible;"/>
	</clipPath>
	
		<linearGradient id="SVGID_129_" gradientUnits="userSpaceOnUse" x1="-611.999" y1="621.43" x2="-610.999" y2="621.43" gradientTransform="matrix(321.7315 27.3472 27.3472 -321.7315 179931.6875 216849.6406)">
		<stop  offset="0" style="stop-color:#D5AE91"/>
		<stop  offset="1" style="stop-color:#9E7563"/>
	</linearGradient>
	<polygon class="st42" points="244,182.6 253.6,183.4 251,214.1 241.4,213.3 	"/>
</g>
<g>
	<defs>
		<path id="SVGID_130_" d="M273.9,183.2v0.3c0.5,0.1,0.9,0.5,1.3,1c0.3,0.5,0.5,1.2,0.5,2.1v21.6l-15.7-25h-4.5v0.3
			c0.5,0.1,1,0.5,1.3,1c0.3,0.5,0.5,1.2,0.5,2.1v23.6c0,1-0.2,1.7-0.5,2.2c-0.3,0.5-0.7,0.8-1.3,1v0.3h4.2v-0.3
			c-0.6-0.1-1-0.5-1.3-1c-0.3-0.5-0.5-1.2-0.5-2.2v-24.5l17.4,27.9h1v-27c0-0.9,0.2-1.6,0.5-2.1c0.3-0.5,0.7-0.8,1.3-1v-0.3H273.9z"
			/>
	</defs>
	<clipPath id="SVGID_131_">
		<use xlink:href="#SVGID_130_"  style="overflow:visible;"/>
	</clipPath>
	
		<linearGradient id="SVGID_132_" gradientUnits="userSpaceOnUse" x1="-611.999" y1="621.43" x2="-610.999" y2="621.43" gradientTransform="matrix(321.7315 27.3472 27.3472 -321.7315 179931.8125 216848.0156)">
		<stop  offset="0" style="stop-color:#D5AE91"/>
		<stop  offset="1" style="stop-color:#9E7563"/>
	</linearGradient>
	<polygon class="st43" points="255.7,181.3 280.7,183.4 277.9,215.4 252.9,213.3 	"/>
</g>
<g>
	<defs>
		<path id="SVGID_133_" d="M298.1,183.2v0.3c0.6,0.1,1.1,0.6,1.4,1.2c0.3,0.7,0.4,1.3,0.5,1.9c0,0.6,0,0.9,0,1.1
			c0,0.7-0.1,1.5-0.2,2.3c-0.1,0.8-0.3,1.6-0.5,2.2l-4.8,14.5l-6.3-20.2c-0.2-0.5-0.3-1-0.3-1.4c0-0.3,0.1-0.6,0.2-0.9
			c0.1-0.3,0.5-0.6,1-0.7v-0.3h-7.7v0.3c0.6,0.1,1.1,0.4,1.6,0.9c0.5,0.5,0.9,1.2,1.2,2.1c0.5,1.6,0.9,3,1.3,4.3
			c0.4,1.3,0.9,2.7,1.4,4.4l3.1,10c0.5,1.6,0.9,3.1,1.3,4.4c0.4,1.3,0.7,2.3,1,3.1c0.3,0.8,0.4,1.2,0.4,1.2l2.6-7.8
			c0.3-1,0.8-2.3,1.2-3.7c0.5-1.4,1-3.1,1.7-5.1c0.6-1.9,1.4-4.2,2.3-6.8c0.8-2.3,1.6-4,2.3-5.2c0.7-1.1,1.4-1.8,2.1-1.9v-0.3H298.1
			z"/>
	</defs>
	<clipPath id="SVGID_134_">
		<use xlink:href="#SVGID_133_"  style="overflow:visible;"/>
	</clipPath>
	
		<linearGradient id="SVGID_135_" gradientUnits="userSpaceOnUse" x1="-611.999" y1="621.4285" x2="-610.999" y2="621.4285" gradientTransform="matrix(321.7315 27.3472 27.3472 -321.7315 179932.0313 216845.5156)">
		<stop  offset="0" style="stop-color:#D5AE91"/>
		<stop  offset="1" style="stop-color:#9E7563"/>
	</linearGradient>
	<polygon class="st44" points="281.5,181.2 307.5,183.4 304.7,215.9 278.8,213.7 	"/>
</g>
<g>
	<defs>
		<path id="SVGID_136_" d="M308.2,183.2v0.3c0.5,0.1,1,0.5,1.3,1c0.3,0.5,0.5,1.2,0.5,2.1v23.6c0,0.9-0.2,1.6-0.5,2.1
			c-0.3,0.5-0.7,0.8-1.3,1v0.3H326c0-0.1,0.1-0.3,0.1-0.4l0.6-3.5c0.2-1.1,0.4-2.6,0.8-4.6c-0.1-0.1-0.1-0.1-0.3-0.2
			c-0.1,0-0.2-0.1-0.3-0.2c-0.1,0.7-0.4,1.5-0.6,2.4c-0.3,0.9-0.7,1.8-1.3,2.7c-0.6,0.9-1.3,1.6-2.3,2.2c-0.9,0.6-2.1,0.9-3.5,0.9
			h-5.6v-15h4.5c0.4,0,0.8,0.1,1.2,0.3c0.4,0.2,0.7,0.5,0.9,0.8c0.3,0.3,0.5,0.6,0.6,1c0.2,0.3,0.3,0.7,0.3,1h0.3v-6.7h-0.3
			c-0.1,0.3-0.2,0.7-0.3,1c-0.2,0.3-0.4,0.7-0.6,1c-0.3,0.3-0.6,0.6-0.9,0.8c-0.4,0.2-0.8,0.3-1.2,0.3h-4.5v-13.3h5.6
			c1.4,0,2.5,0.3,3.4,0.8c0.8,0.6,1.5,1.2,1.9,2c0.4,0.8,0.7,1.5,0.9,2.3c0.1,0.8,0.3,1.3,0.3,1.6c0.1-0.1,0.2-0.1,0.3-0.2
			c0.1,0,0.2-0.1,0.3-0.2l-1.3-7.2H308.2z"/>
	</defs>
	<clipPath id="SVGID_137_">
		<use xlink:href="#SVGID_136_"  style="overflow:visible;"/>
	</clipPath>
	
		<linearGradient id="SVGID_138_" gradientUnits="userSpaceOnUse" x1="-611.999" y1="621.4303" x2="-610.999" y2="621.4303" gradientTransform="matrix(321.7315 27.3472 27.3472 -321.7315 179932.1719 216843.8125)">
		<stop  offset="0" style="stop-color:#D5AE91"/>
		<stop  offset="1" style="stop-color:#9E7563"/>
	</linearGradient>
	<polygon class="st45" points="308.3,181.5 330.1,183.4 327.4,215.2 305.6,213.3 	"/>
</g>
<g>
	<defs>
		<path id="SVGID_139_" d="M336.5,183.2c-0.9,0.3-1.7,0.8-2.4,1.3c-0.7,0.6-1.2,1.3-1.6,2.1c-0.4,0.8-0.6,1.8-0.6,2.8
			c0,1.4,0.3,2.6,1,3.6c0.7,1,1.6,2,2.6,2.9c1.1,0.9,2.2,1.8,3.4,2.6c1.2,0.8,2.4,1.7,3.4,2.6c1.1,0.9,1.9,2,2.6,3.1
			c0.7,1.1,1,2.5,1,3.9c0,0.7-0.1,1.4-0.4,2c-0.3,0.6-0.6,1.1-1.1,1.5c-0.4,0.4-1,0.8-1.5,1c-0.6,0.2-1.1,0.3-1.7,0.3
			c-1.3,0-2.5-0.2-3.6-0.7c-1.1-0.4-2.1-1.1-3-2.1c-0.9-0.9-1.5-2.1-2-3.6c-0.5-1.4-0.7-3.2-0.7-5.2h-0.6v11.5h0.4
			c0-0.2,0-0.4,0.2-0.7c0.1-0.3,0.2-0.5,0.4-0.7c0.1-0.2,0.3-0.4,0.5-0.5c0.2-0.1,0.4-0.2,0.7-0.2c0.4,0,0.8,0.2,1.2,0.5
			c0.4,0.3,1,0.6,1.6,1c0.6,0.3,1.4,0.7,2.3,1c0.9,0.3,2,0.5,3.2,0.5c1,0,1.9-0.2,2.8-0.5c0.9-0.3,1.8-0.7,2.5-1.4
			c0.7-0.6,1.3-1.4,1.8-2.4c0.4-1,0.7-2.2,0.7-3.5c0-1.6-0.3-2.9-1-4.1c-0.7-1.2-1.6-2.2-2.6-3.2c-1-1-2.2-1.8-3.4-2.7
			c-1.2-0.8-2.3-1.7-3.4-2.5c-1-0.8-1.9-1.7-2.6-2.7c-0.7-1-1-2-1-3.3c0-0.6,0.1-1.2,0.4-1.7c0.2-0.5,0.6-1,1-1.4
			c0.4-0.4,0.9-0.8,1.4-1c0.5-0.2,1.1-0.4,1.7-0.4c0.8,0,1.7,0.2,2.7,0.5c0.9,0.4,1.8,1,2.6,1.9c0.8,0.9,1.5,2.1,2,3.6
			c0.5,1.5,0.8,3.4,0.8,5.6h0.7v-11.5h-0.5c0,0.2,0,0.4-0.1,0.6c-0.1,0.2-0.2,0.5-0.3,0.7c-0.1,0.2-0.3,0.4-0.5,0.6
			c-0.2,0.2-0.4,0.2-0.5,0.2c-0.3,0-0.7-0.1-1-0.4c-0.3-0.3-0.8-0.6-1.3-1c-0.6-0.4-1.2-0.7-2-1c-0.8-0.3-1.8-0.4-3-0.4
			C338.3,182.8,337.4,182.9,336.5,183.2"/>
	</defs>
	<clipPath id="SVGID_140_">
		<use xlink:href="#SVGID_139_"  style="overflow:visible;"/>
	</clipPath>
	
		<linearGradient id="SVGID_141_" gradientUnits="userSpaceOnUse" x1="-611.999" y1="621.4301" x2="-610.999" y2="621.4301" gradientTransform="matrix(321.7315 27.3472 27.3472 -321.7315 179932.3438 216841.8594)">
		<stop  offset="0" style="stop-color:#D5AE91"/>
		<stop  offset="1" style="stop-color:#9E7563"/>
	</linearGradient>
	<polygon class="st46" points="331.4,181.2 352.1,183 349.4,215.5 328.7,213.7 	"/>
</g>
<g>
	<defs>
		<path id="SVGID_142_" d="M354.1,183.2c0,0-0.1,0.4-0.2,1.1c-0.1,0.7-0.3,1.6-0.4,2.5c-0.2,1-0.4,2.2-0.7,3.5
			c0.1,0.1,0.2,0.1,0.3,0.2c0.1,0.1,0.2,0.1,0.3,0.2c0.3-1.7,0.7-3.1,1.3-4c0.5-0.9,1.2-1.6,1.9-2c0.7-0.4,1.6-0.6,2.5-0.7
			c1-0.1,2-0.1,3.2-0.1v26.3c0,0.9-0.2,1.6-0.5,2.1c-0.3,0.5-0.8,0.8-1.3,1v0.3h7.2v-0.4c-0.6,0-1-0.3-1.3-0.8
			c-0.3-0.5-0.5-1.2-0.5-2.2v-26.3c1.1,0,2.1,0,3,0c1,0,1.8,0.2,2.6,0.7c0.8,0.4,1.4,1.1,2,2c0.6,0.9,1,2.3,1.4,4.1
			c0.1-0.1,0.2-0.1,0.3-0.2c0.1-0.1,0.2-0.1,0.3-0.2c-0.3-1.3-0.5-2.5-0.6-3.6c-0.2-0.9-0.3-1.7-0.5-2.4c-0.1-0.7-0.2-1.1-0.2-1.1
			H354.1z"/>
	</defs>
	<clipPath id="SVGID_143_">
		<use xlink:href="#SVGID_142_"  style="overflow:visible;"/>
	</clipPath>
	
		<linearGradient id="SVGID_144_" gradientUnits="userSpaceOnUse" x1="-611.999" y1="621.4291" x2="-610.999" y2="621.4291" gradientTransform="matrix(321.7315 27.3472 27.3472 -321.7315 179932.5469 216839.5469)">
		<stop  offset="0" style="stop-color:#D5AE91"/>
		<stop  offset="1" style="stop-color:#9E7563"/>
	</linearGradient>
	<polygon class="st47" points="352.9,181.3 377.9,183.4 375.2,215.4 350.2,213.3 	"/>
</g>
<g>
	<defs>
		<rect id="SVGID_145_" x="-612" y="-378.6" width="1600" height="1000"/>
	</defs>
	<clipPath id="SVGID_146_">
		<use xlink:href="#SVGID_145_"  style="overflow:visible;"/>
	</clipPath>
	<path class="st48" d="M56.2,238.7c0.1,0.2,0.4,0.4,0.6,0.5v0.1h-3.5v-0.1c0.3-0.1,0.5-0.2,0.6-0.5c0.1-0.2,0.2-0.6,0.2-1.1V226
		c0-0.5-0.1-0.8-0.2-1.1c-0.2-0.2-0.4-0.4-0.6-0.5v-0.2h5.2c0.6,0,1.2,0.1,1.7,0.3c0.5,0.2,0.9,0.4,1.3,0.8c0.4,0.4,0.7,0.8,0.9,1.4
		c0.2,0.6,0.3,1.2,0.3,2c0,0.7-0.1,1.3-0.3,1.8c-0.2,0.5-0.4,0.9-0.7,1.3c-0.3,0.3-0.7,0.6-1.1,0.8c-0.4,0.2-0.9,0.3-1.3,0.4
		c0.4,0.1,0.8,0.3,1.1,0.6c0.3,0.2,0.5,0.5,0.7,0.9c0.2,0.4,0.4,0.8,0.5,1.3c0.2,0.5,0.3,1,0.5,1.6c0.2,0.5,0.4,0.9,0.6,1.2
		c0.3,0.4,0.5,0.6,0.8,0.6v0.1h-3.9v-0.1c0.2-0.1,0.4-0.2,0.5-0.4c0.1-0.2,0.2-0.4,0.2-0.6c0-0.1,0-0.2,0-0.3
		c-0.2-0.9-0.4-1.6-0.5-2.3c-0.1-0.6-0.3-1.1-0.5-1.5c-0.2-0.4-0.4-0.7-0.6-0.9c-0.2-0.2-0.6-0.3-0.9-0.3H56v4.6
		C56,238.1,56.1,238.5,56.2,238.7 M56,232.7h2.7c0.2,0,0.4-0.1,0.7-0.2c0.2-0.1,0.5-0.4,0.7-0.7c0.2-0.3,0.4-0.7,0.5-1.2
		c0.1-0.5,0.2-1.2,0.2-1.9c0-0.8-0.1-1.5-0.2-2c-0.1-0.5-0.3-0.9-0.5-1.3c-0.2-0.3-0.5-0.5-0.7-0.7c-0.3-0.1-0.5-0.2-0.8-0.2H56
		V232.7z"/>
	<path class="st48" d="M70.1,239.2c-0.5,0.2-1,0.3-1.7,0.3c-0.5,0-1.1-0.1-1.6-0.3c-0.5-0.2-1-0.6-1.4-1c-0.4-0.5-0.7-1-1-1.7
		c-0.3-0.7-0.4-1.5-0.4-2.4c0-0.7,0.1-1.4,0.3-2.1c0.2-0.7,0.5-1.2,0.9-1.7c0.4-0.5,0.9-0.9,1.4-1.2c0.6-0.3,1.2-0.5,1.9-0.5
		c0.7,0,1.3,0.2,1.8,0.5c0.5,0.3,0.9,0.7,1.2,1.2c0.3,0.5,0.5,1.1,0.7,1.7c0.1,0.6,0.2,1.3,0.2,1.9h-6.6c0,0.6,0,1.1,0.1,1.7
		c0.1,0.5,0.2,1,0.5,1.5c0.2,0.4,0.5,0.8,0.9,1c0.4,0.3,0.8,0.4,1.4,0.4c0.5,0,0.9-0.1,1.3-0.2c0.4-0.1,0.7-0.3,1-0.5
		c0.3-0.2,0.5-0.4,0.7-0.6c0.2-0.2,0.4-0.4,0.5-0.6c0,0,0,0,0,0c0,0,0,0,0.1,0l0.1,0c-0.1,0.2-0.2,0.4-0.4,0.7
		c-0.2,0.3-0.4,0.6-0.8,0.9C70.9,238.7,70.5,239,70.1,239.2 M66,232.1c-0.1,0.6-0.1,1.1-0.1,1.6h4.8c0-0.5,0-1.1,0-1.6
		c0-0.6-0.1-1.1-0.2-1.6c-0.1-0.5-0.4-0.9-0.7-1.2c-0.3-0.3-0.7-0.5-1.3-0.5c-0.5,0-0.9,0.2-1.2,0.5c-0.3,0.3-0.6,0.7-0.8,1.2
		C66.2,231,66.1,231.6,66,232.1"/>
	<path class="st48" d="M81,239.3c-0.2,0.1-0.4,0.2-0.7,0.2c-0.4,0-0.7-0.1-0.9-0.4c-0.2-0.3-0.4-0.6-0.5-1.1
		c-0.2,0.4-0.5,0.8-0.9,1.1c-0.4,0.3-0.9,0.4-1.5,0.4c-0.6,0-1.1-0.1-1.5-0.2c-0.4-0.2-0.7-0.4-0.9-0.6c-0.2-0.3-0.4-0.5-0.5-0.8
		c-0.1-0.3-0.2-0.6-0.2-0.9c0-0.4,0.1-0.8,0.2-1.2c0.2-0.4,0.4-0.7,0.8-1c0.4-0.3,1-0.6,1.7-0.9c0.7-0.3,1.6-0.5,2.7-0.7
		c0-0.6,0-1.1,0-1.6c0-0.5-0.1-1-0.2-1.4c-0.1-0.4-0.2-0.7-0.4-0.9c-0.2-0.2-0.5-0.3-0.8-0.3c-0.5,0-0.8,0.1-1.1,0.3
		c-0.3,0.2-0.5,0.5-0.7,0.8c-0.2,0.3-0.3,0.7-0.3,1.1c0,0.4-0.1,0.7-0.1,1c-0.1-0.1-0.3-0.2-0.4-0.3c-0.1-0.1-0.2-0.2-0.3-0.3
		c-0.1-0.1-0.2-0.2-0.3-0.2c0-0.3,0.1-0.6,0.3-0.9c0.2-0.3,0.4-0.6,0.7-0.8c0.3-0.3,0.6-0.5,1-0.6c0.4-0.2,0.8-0.2,1.2-0.2
		c0.9,0,1.5,0.2,2,0.5c0.4,0.3,0.8,0.7,0.9,1.3c0.2,0.5,0.3,1.1,0.3,1.8c0,0.7,0,1.4,0,2.2v2.1c0,0.6,0,1,0,1.3
		c0,0.3,0.1,0.5,0.1,0.6c0.1,0.1,0.2,0.2,0.3,0.2c0.1,0,0.2,0,0.3-0.1c0.1-0.1,0.2-0.2,0.3-0.3c0.1-0.1,0.2-0.3,0.3-0.5l0.2,0.1
		c-0.1,0.2-0.2,0.4-0.3,0.6c-0.1,0.2-0.2,0.4-0.4,0.6C81.4,239.1,81.2,239.2,81,239.3 M76.2,239.1c0.2,0.1,0.4,0.2,0.7,0.2
		c0.3,0,0.6-0.1,0.8-0.2c0.3-0.2,0.5-0.3,0.6-0.5c0.2-0.2,0.3-0.4,0.4-0.6c0.1-0.2,0.1-0.4,0.1-0.5v-4.1c-0.9,0.2-1.6,0.4-2.1,0.7
		c-0.5,0.3-0.9,0.6-1.1,0.9c-0.2,0.3-0.4,0.6-0.4,1c0,0.3-0.1,0.7-0.1,1c0,0.3,0,0.6,0.1,0.9c0.1,0.3,0.2,0.5,0.3,0.8
		C75.8,238.8,76,239,76.2,239.1"/>
	<path class="st48" d="M86,239.3c-0.2,0.1-0.4,0.2-0.7,0.2c-0.5,0-0.8-0.2-1.1-0.5c-0.3-0.4-0.4-0.9-0.4-1.5v-10.9
		c0-0.9-0.2-1.4-0.8-1.5v-0.1l2.5-1h0.1v12.9c0,0.7,0,1.2,0.1,1.4c0,0.3,0.2,0.4,0.4,0.4c0.1,0,0.2-0.1,0.3-0.2
		c0.1-0.1,0.2-0.2,0.3-0.3c0.1-0.1,0.2-0.3,0.3-0.5l0.2,0.1c-0.1,0.2-0.2,0.4-0.3,0.6c-0.1,0.2-0.2,0.4-0.4,0.6
		C86.4,239.1,86.2,239.2,86,239.3"/>
	<path class="st48" d="M99.7,239.2c-0.5,0.2-1,0.3-1.7,0.3c-0.5,0-1.1-0.1-1.6-0.3c-0.5-0.2-1-0.6-1.4-1c-0.4-0.5-0.7-1-1-1.7
		c-0.3-0.7-0.4-1.5-0.4-2.4c0-0.7,0.1-1.4,0.3-2.1c0.2-0.7,0.5-1.2,0.9-1.7c0.4-0.5,0.9-0.9,1.4-1.2c0.6-0.3,1.2-0.5,1.9-0.5
		c0.7,0,1.3,0.2,1.8,0.5c0.5,0.3,0.9,0.7,1.2,1.2c0.3,0.5,0.5,1.1,0.7,1.7c0.1,0.6,0.2,1.3,0.2,1.9h-6.6c0,0.6,0,1.1,0.1,1.7
		c0.1,0.5,0.2,1,0.5,1.5c0.2,0.4,0.5,0.8,0.9,1c0.4,0.3,0.8,0.4,1.4,0.4c0.5,0,0.9-0.1,1.3-0.2c0.4-0.1,0.7-0.3,1-0.5
		c0.3-0.2,0.5-0.4,0.7-0.6c0.2-0.2,0.4-0.4,0.5-0.6c0,0,0,0,0,0c0,0,0,0,0.1,0l0.1,0c-0.1,0.2-0.2,0.4-0.4,0.7
		c-0.2,0.3-0.4,0.6-0.8,0.9C100.5,238.7,100.1,239,99.7,239.2 M95.6,232.1c-0.1,0.6-0.1,1.1-0.1,1.6h4.8c0-0.5,0-1.1,0-1.6
		c0-0.6-0.1-1.1-0.2-1.6c-0.1-0.5-0.4-0.9-0.7-1.2c-0.3-0.3-0.7-0.5-1.3-0.5c-0.5,0-0.9,0.2-1.2,0.5c-0.3,0.3-0.6,0.7-0.8,1.2
		C95.8,231,95.7,231.6,95.6,232.1"/>
	<path class="st48" d="M107.6,239.3c-0.4,0.1-0.8,0.2-1.3,0.2c-0.5,0-1-0.1-1.4-0.2c-0.4-0.1-0.8-0.3-1-0.5
		c-0.3-0.2-0.5-0.5-0.7-0.7c-0.2-0.3-0.2-0.5-0.2-0.7l0.9-0.7c0,0.2,0,0.5,0.1,0.8c0.1,0.3,0.2,0.6,0.4,0.9c0.2,0.3,0.5,0.5,0.8,0.7
		c0.3,0.2,0.7,0.3,1.1,0.3h0.1c0.3,0,0.5-0.1,0.8-0.2c0.2-0.1,0.5-0.2,0.6-0.4c0.2-0.2,0.3-0.4,0.4-0.6c0.1-0.2,0.2-0.4,0.2-0.6
		c0-0.5-0.1-0.9-0.4-1.2c-0.3-0.3-0.6-0.6-0.9-0.9c-0.4-0.3-0.8-0.5-1.2-0.8c-0.4-0.2-0.8-0.5-1.2-0.8c-0.4-0.3-0.7-0.6-0.9-1
		c-0.3-0.4-0.4-0.9-0.4-1.4c0-0.5,0.1-0.9,0.2-1.2c0.2-0.3,0.4-0.6,0.6-0.8c0.3-0.2,0.6-0.4,0.9-0.5c0.3-0.1,0.7-0.2,1.1-0.2
		c0.4,0,0.7,0.1,1.1,0.2c0.3,0.1,0.6,0.3,0.8,0.5c0.2,0.2,0.4,0.5,0.6,0.7c0.1,0.3,0.2,0.5,0.2,0.7l-0.9,0.7c0-0.2,0-0.5-0.1-0.8
		c-0.1-0.3-0.2-0.6-0.3-0.9c-0.1-0.3-0.3-0.5-0.6-0.7c-0.2-0.2-0.5-0.3-0.9-0.3c-0.5,0-0.9,0.1-1.2,0.4c-0.3,0.3-0.5,0.6-0.5,1
		c0,0.5,0.1,0.9,0.4,1.3c0.3,0.3,0.6,0.7,1,0.9c0.4,0.3,0.8,0.5,1.2,0.8c0.4,0.2,0.9,0.5,1.2,0.8c0.4,0.3,0.7,0.7,1,1.1
		c0.3,0.4,0.4,0.9,0.4,1.5c0,0.4-0.1,0.8-0.3,1.2c-0.2,0.4-0.4,0.7-0.7,0.9C108.3,239,108,239.2,107.6,239.3"/>
	<path class="st48" d="M113.3,239.3c-0.2,0.1-0.4,0.2-0.7,0.2c-0.5,0-0.8-0.2-1.1-0.5c-0.2-0.4-0.4-0.9-0.4-1.5V229h-0.8v-0.2h0.8
		v-2.2l1.7-0.7h0.1v2.9h1.8v0.2H113v7.8c0,0.7,0,1.2,0.1,1.4c0,0.3,0.2,0.4,0.3,0.4c0.1,0,0.2-0.1,0.3-0.2c0.1-0.1,0.2-0.2,0.3-0.3
		c0.1-0.1,0.2-0.3,0.3-0.5l0.2,0.1c-0.1,0.2-0.1,0.4-0.2,0.6c-0.1,0.2-0.2,0.4-0.4,0.6C113.7,239.1,113.5,239.2,113.3,239.3"/>
	<path class="st48" d="M123.4,239.3c-0.2,0.1-0.4,0.2-0.7,0.2c-0.4,0-0.7-0.1-0.9-0.4c-0.2-0.3-0.4-0.6-0.5-1.1
		c-0.2,0.4-0.5,0.8-0.9,1.1c-0.4,0.3-0.9,0.4-1.5,0.4c-0.6,0-1.1-0.1-1.5-0.2c-0.4-0.2-0.7-0.4-0.9-0.6c-0.2-0.3-0.4-0.5-0.5-0.8
		c-0.1-0.3-0.2-0.6-0.2-0.9c0-0.4,0.1-0.8,0.2-1.2c0.2-0.4,0.4-0.7,0.8-1c0.4-0.3,1-0.6,1.7-0.9c0.7-0.3,1.6-0.5,2.7-0.7
		c0-0.6,0-1.1,0-1.6c0-0.5-0.1-1-0.2-1.4c-0.1-0.4-0.2-0.7-0.4-0.9c-0.2-0.2-0.5-0.3-0.8-0.3c-0.5,0-0.8,0.1-1.1,0.3
		c-0.3,0.2-0.5,0.5-0.7,0.8c-0.2,0.3-0.3,0.7-0.3,1.1c0,0.4-0.1,0.7-0.1,1c-0.1-0.1-0.3-0.2-0.4-0.3c-0.1-0.1-0.2-0.2-0.3-0.3
		c-0.1-0.1-0.2-0.2-0.3-0.2c0-0.3,0.1-0.6,0.3-0.9c0.2-0.3,0.4-0.6,0.7-0.8c0.3-0.3,0.6-0.5,1-0.6c0.4-0.2,0.8-0.2,1.2-0.2
		c0.9,0,1.5,0.2,2,0.5c0.4,0.3,0.8,0.7,0.9,1.3c0.2,0.5,0.3,1.1,0.3,1.8c0,0.7,0,1.4,0,2.2v2.1c0,0.6,0,1,0,1.3
		c0,0.3,0.1,0.5,0.1,0.6c0.1,0.1,0.2,0.2,0.3,0.2c0.1,0,0.2,0,0.3-0.1c0.1-0.1,0.2-0.2,0.3-0.3c0.1-0.1,0.2-0.3,0.3-0.5l0.2,0.1
		c-0.1,0.2-0.2,0.4-0.3,0.6c-0.1,0.2-0.2,0.4-0.4,0.6C123.8,239.1,123.6,239.2,123.4,239.3 M118.5,239.1c0.2,0.1,0.4,0.2,0.7,0.2
		c0.3,0,0.6-0.1,0.8-0.2c0.3-0.2,0.5-0.3,0.6-0.5c0.2-0.2,0.3-0.4,0.4-0.6c0.1-0.2,0.1-0.4,0.1-0.5v-4.1c-0.9,0.2-1.6,0.4-2.1,0.7
		c-0.5,0.3-0.9,0.6-1.1,0.9c-0.2,0.3-0.4,0.6-0.4,1c0,0.3-0.1,0.7-0.1,1c0,0.3,0,0.6,0.1,0.9c0.1,0.3,0.2,0.5,0.3,0.8
		C118.1,238.8,118.3,239,118.5,239.1"/>
	<path class="st48" d="M128.4,239.3c-0.2,0.1-0.4,0.2-0.7,0.2c-0.5,0-0.8-0.2-1.1-0.5c-0.2-0.4-0.4-0.9-0.4-1.5V229h-0.8v-0.2h0.8
		v-2.2l1.7-0.7h0.1v2.9h1.8v0.2H128v7.8c0,0.7,0,1.2,0.1,1.4c0,0.3,0.2,0.4,0.3,0.4c0.1,0,0.2-0.1,0.3-0.2c0.1-0.1,0.2-0.2,0.3-0.3
		c0.1-0.1,0.2-0.3,0.3-0.5l0.2,0.1c-0.1,0.2-0.1,0.4-0.2,0.6c-0.1,0.2-0.2,0.4-0.4,0.6C128.7,239.1,128.6,239.2,128.4,239.3"/>
	<path class="st48" d="M136.7,239.2c-0.5,0.2-1,0.3-1.7,0.3c-0.5,0-1.1-0.1-1.6-0.3c-0.5-0.2-1-0.6-1.4-1c-0.4-0.5-0.7-1-1-1.7
		c-0.3-0.7-0.4-1.5-0.4-2.4c0-0.7,0.1-1.4,0.3-2.1c0.2-0.7,0.5-1.2,0.9-1.7c0.4-0.5,0.9-0.9,1.4-1.2c0.6-0.3,1.2-0.5,1.9-0.5
		c0.7,0,1.3,0.2,1.8,0.5c0.5,0.3,0.9,0.7,1.2,1.2c0.3,0.5,0.5,1.1,0.7,1.7s0.2,1.3,0.2,1.9h-6.6c0,0.6,0,1.1,0.1,1.7
		c0.1,0.5,0.2,1,0.5,1.5c0.2,0.4,0.5,0.8,0.9,1c0.4,0.3,0.8,0.4,1.4,0.4c0.5,0,0.9-0.1,1.3-0.2c0.4-0.1,0.7-0.3,1-0.5
		c0.3-0.2,0.5-0.4,0.7-0.6c0.2-0.2,0.4-0.4,0.5-0.6c0,0,0,0,0,0c0,0,0,0,0.1,0l0.1,0c-0.1,0.2-0.2,0.4-0.4,0.7
		c-0.2,0.3-0.4,0.6-0.8,0.9C137.6,238.7,137.2,239,136.7,239.2 M132.6,232.1c-0.1,0.6-0.1,1.1-0.1,1.6h4.8c0-0.5,0-1.1,0-1.6
		c0-0.6-0.1-1.1-0.2-1.6c-0.1-0.5-0.4-0.9-0.7-1.2c-0.3-0.3-0.7-0.5-1.3-0.5c-0.5,0-0.9,0.2-1.2,0.5c-0.3,0.3-0.6,0.7-0.8,1.2
		C132.8,231,132.7,231.6,132.6,232.1"/>
	<path class="st48" d="M153.2,239.1c-0.7,0.3-1.6,0.4-2.6,0.4c-0.8,0-1.5-0.1-2.1-0.4c-0.6-0.3-1.1-0.6-1.5-1.1
		c-0.4-0.5-0.7-1-0.9-1.5c-0.2-0.6-0.3-1.2-0.3-1.8c0-0.7,0.1-1.4,0.4-1.9c0.2-0.6,0.6-1.1,0.9-1.6c0.4-0.5,0.8-0.9,1.2-1.2
		c0.4-0.4,0.9-0.7,1.3-1c-0.2-0.4-0.4-0.8-0.6-1.2c-0.2-0.5-0.3-0.9-0.3-1.4c0-0.6,0.2-1.2,0.6-1.6c0.4-0.4,0.9-0.6,1.6-0.6
		c1.3,0,1.9,0.6,1.9,1.8c0,0.2-0.1,0.5-0.2,0.7c-0.1,0.2-0.2,0.5-0.4,0.7c-0.2,0.2-0.4,0.4-0.6,0.6c-0.2,0.2-0.4,0.4-0.6,0.6
		l4.9,8.3c0.3-0.5,0.5-0.9,0.6-1.2c0.1-0.3,0.2-0.6,0.2-0.8c0-0.2,0-0.4-0.1-0.6h1.5c-0.2,0.5-0.4,1-0.8,1.6c-0.3,0.5-0.7,1-1.2,1.5
		c0.3,0.5,0.5,0.9,0.8,1.3c0.2,0.4,0.5,0.6,0.7,0.7v0.2h-2.6v-0.2c0.1,0,0.2-0.1,0.2-0.2c0-0.1,0-0.1,0-0.1c0-0.1,0-0.1,0-0.2
		c0-0.1-0.1-0.2-0.1-0.2c0-0.1-0.1-0.1-0.1-0.2C154.5,238.6,153.9,238.9,153.2,239.1 M149.9,238.8c0.5,0.2,1,0.3,1.5,0.3
		c0.6,0,1.3-0.1,1.8-0.3c0.6-0.2,1.1-0.5,1.5-0.8c-0.9-1.5-1.6-2.7-2.1-3.6c-0.5-0.9-1-1.7-1.3-2.2l-1.1-1.9
		c-0.1-0.1-0.2-0.3-0.2-0.4c-0.1-0.1-0.2-0.2-0.3-0.5c-0.3,0.2-0.6,0.5-0.8,0.9c-0.3,0.3-0.5,0.7-0.7,1.2c-0.2,0.4-0.4,0.9-0.5,1.5
		c-0.1,0.5-0.2,1.1-0.2,1.7c0,0.7,0.1,1.3,0.3,1.8c0.2,0.6,0.5,1,0.9,1.4C149,238.3,149.4,238.6,149.9,238.8 M150.4,227.1
		c0.1,0.4,0.2,0.7,0.4,1c0.3-0.2,0.5-0.5,0.8-0.7c0.2-0.2,0.4-0.5,0.5-0.7c0.2-0.3,0.2-0.5,0.2-0.8c0-0.4-0.1-0.7-0.3-0.9
		c-0.2-0.2-0.4-0.3-0.8-0.3c-0.3,0-0.6,0.1-0.7,0.4s-0.2,0.5-0.3,0.7c0,0.2,0,0.4,0,0.5C150.3,226.6,150.3,226.8,150.4,227.1"/>
	<path class="st48" d="M169.3,239.3c-0.4,0.1-0.8,0.2-1.3,0.2c-0.5,0-1-0.1-1.4-0.2c-0.4-0.1-0.8-0.3-1-0.5
		c-0.3-0.2-0.5-0.5-0.7-0.7c-0.2-0.3-0.2-0.5-0.2-0.7l0.9-0.7c0,0.2,0,0.5,0.1,0.8c0.1,0.3,0.2,0.6,0.4,0.9c0.2,0.3,0.5,0.5,0.8,0.7
		c0.3,0.2,0.7,0.3,1.1,0.3h0.1c0.3,0,0.5-0.1,0.8-0.2c0.2-0.1,0.5-0.2,0.6-0.4c0.2-0.2,0.3-0.4,0.4-0.6c0.1-0.2,0.2-0.4,0.2-0.6
		c0-0.5-0.1-0.9-0.4-1.2c-0.3-0.3-0.6-0.6-0.9-0.9c-0.4-0.3-0.8-0.5-1.2-0.8c-0.4-0.2-0.8-0.5-1.2-0.8c-0.4-0.3-0.7-0.6-0.9-1
		c-0.3-0.4-0.4-0.9-0.4-1.4c0-0.5,0.1-0.9,0.2-1.2c0.2-0.3,0.4-0.6,0.6-0.8c0.3-0.2,0.6-0.4,0.9-0.5c0.3-0.1,0.7-0.2,1.1-0.2
		c0.4,0,0.7,0.1,1.1,0.2c0.3,0.1,0.6,0.3,0.8,0.5c0.2,0.2,0.4,0.5,0.6,0.7c0.1,0.3,0.2,0.5,0.2,0.7l-0.9,0.7c0-0.2,0-0.5-0.1-0.8
		c-0.1-0.3-0.2-0.6-0.3-0.9c-0.1-0.3-0.3-0.5-0.6-0.7c-0.2-0.2-0.5-0.3-0.9-0.3c-0.5,0-0.9,0.1-1.2,0.4c-0.3,0.3-0.5,0.6-0.5,1
		c0,0.5,0.1,0.9,0.4,1.3c0.3,0.3,0.6,0.7,1,0.9c0.4,0.3,0.8,0.5,1.2,0.8c0.4,0.2,0.9,0.5,1.2,0.8c0.4,0.3,0.7,0.7,1,1.1
		c0.3,0.4,0.4,0.9,0.4,1.5c0,0.4-0.1,0.8-0.2,1.2c-0.2,0.4-0.4,0.7-0.7,0.9C170,239,169.7,239.2,169.3,239.3"/>
	<path class="st48" d="M175,239.3c-0.2,0.1-0.4,0.2-0.7,0.2c-0.5,0-0.8-0.2-1.1-0.5c-0.2-0.4-0.4-0.9-0.4-1.5V229h-0.8v-0.2h0.8
		v-2.2l1.7-0.7h0.1v2.9h1.8v0.2h-1.8v7.8c0,0.7,0,1.2,0.1,1.4c0,0.3,0.2,0.4,0.3,0.4c0.1,0,0.2-0.1,0.3-0.2c0.1-0.1,0.2-0.2,0.3-0.3
		c0.1-0.1,0.2-0.3,0.3-0.5l0.2,0.1c-0.1,0.2-0.1,0.4-0.2,0.6c-0.1,0.2-0.2,0.4-0.4,0.6C175.4,239.1,175.2,239.2,175,239.3"/>
	<path class="st48" d="M185.1,239.3c-0.2,0.1-0.4,0.2-0.7,0.2c-0.4,0-0.7-0.1-0.9-0.4c-0.2-0.3-0.4-0.6-0.5-1.1
		c-0.2,0.4-0.5,0.8-0.9,1.1c-0.4,0.3-0.9,0.4-1.5,0.4c-0.6,0-1.1-0.1-1.5-0.2c-0.4-0.2-0.7-0.4-0.9-0.6c-0.2-0.3-0.4-0.5-0.5-0.8
		c-0.1-0.3-0.2-0.6-0.2-0.9c0-0.4,0.1-0.8,0.2-1.2c0.1-0.4,0.4-0.7,0.8-1c0.4-0.3,1-0.6,1.7-0.9c0.7-0.3,1.6-0.5,2.7-0.7
		c0-0.6,0-1.1,0-1.6c0-0.5-0.1-1-0.2-1.4c-0.1-0.4-0.2-0.7-0.4-0.9c-0.2-0.2-0.5-0.3-0.8-0.3c-0.5,0-0.8,0.1-1.1,0.3
		c-0.3,0.2-0.5,0.5-0.7,0.8c-0.2,0.3-0.3,0.7-0.3,1.1c0,0.4-0.1,0.7-0.1,1c-0.1-0.1-0.3-0.2-0.4-0.3c-0.1-0.1-0.2-0.2-0.3-0.3
		c-0.1-0.1-0.2-0.2-0.3-0.2c0-0.3,0.1-0.6,0.3-0.9c0.2-0.3,0.4-0.6,0.7-0.8c0.3-0.3,0.6-0.5,1-0.6c0.4-0.2,0.8-0.2,1.2-0.2
		c0.9,0,1.5,0.2,2,0.5c0.4,0.3,0.8,0.7,0.9,1.3c0.2,0.5,0.3,1.1,0.3,1.8c0,0.7,0,1.4,0,2.2v2.1c0,0.6,0,1,0,1.3
		c0,0.3,0.1,0.5,0.1,0.6c0.1,0.1,0.2,0.2,0.3,0.2c0.1,0,0.2,0,0.3-0.1c0.1-0.1,0.2-0.2,0.3-0.3c0.1-0.1,0.2-0.3,0.3-0.5l0.2,0.1
		c-0.1,0.2-0.2,0.4-0.3,0.6c-0.1,0.2-0.2,0.4-0.4,0.6C185.5,239.1,185.3,239.2,185.1,239.3 M180.2,239.1c0.2,0.1,0.4,0.2,0.7,0.2
		c0.3,0,0.6-0.1,0.8-0.2c0.3-0.2,0.5-0.3,0.6-0.5c0.2-0.2,0.3-0.4,0.4-0.6c0.1-0.2,0.1-0.4,0.1-0.5v-4.1c-0.9,0.2-1.6,0.4-2.1,0.7
		c-0.5,0.3-0.9,0.6-1.1,0.9c-0.2,0.3-0.4,0.6-0.4,1c0,0.3-0.1,0.7-0.1,1c0,0.3,0,0.6,0.1,0.9c0.1,0.3,0.2,0.5,0.3,0.8
		C179.8,238.8,180,239,180.2,239.1"/>
	<path class="st48" d="M190.1,238.7c0.1,0.2,0.3,0.4,0.6,0.5v0.1h-3.5v-0.1c0.3-0.1,0.5-0.2,0.6-0.5c0.2-0.2,0.2-0.6,0.2-1.1v-6.4
		c0-0.9-0.3-1.4-0.8-1.5v-0.2l2.5-1h0.1v1.6c0.2-0.5,0.5-0.9,0.9-1.2c0.4-0.3,0.8-0.4,1.4-0.4c0.5,0,0.9,0.1,1.2,0.3
		c0.3,0.2,0.6,0.4,0.9,0.7c0.2,0.3,0.4,0.6,0.5,0.9c0.1,0.3,0.2,0.6,0.2,0.9c0,0-0.1,0.1-0.2,0.2c-0.1,0.1-0.2,0.2-0.3,0.3
		c-0.1,0.1-0.3,0.2-0.4,0.3c0-0.2,0-0.4,0-0.8c0-0.4-0.1-0.7-0.2-1.1c-0.1-0.4-0.3-0.7-0.5-1c-0.2-0.3-0.6-0.4-1-0.4
		c-0.7,0-1.3,0.3-1.7,0.8c-0.4,0.6-0.6,1.3-0.6,2.2v5.8C189.9,238.1,190,238.5,190.1,238.7"/>
	<path class="st48" d="M198.4,239.3c-0.2,0.1-0.4,0.2-0.7,0.2c-0.5,0-0.8-0.2-1.1-0.5c-0.2-0.4-0.4-0.9-0.4-1.5V229h-0.8v-0.2h0.8
		v-2.2l1.7-0.7h0.1v2.9h1.8v0.2H198v7.8c0,0.7,0,1.2,0.1,1.4c0,0.3,0.2,0.4,0.3,0.4c0.1,0,0.2-0.1,0.3-0.2c0.1-0.1,0.2-0.2,0.3-0.3
		c0.1-0.1,0.2-0.3,0.3-0.5l0.2,0.1c-0.1,0.2-0.1,0.4-0.2,0.6c-0.1,0.2-0.2,0.4-0.4,0.6C198.7,239.1,198.6,239.2,198.4,239.3"/>
	<path class="st48" d="M209.8,239.3c-0.2,0.1-0.4,0.2-0.7,0.2c-0.4,0-0.8-0.2-1-0.5c-0.2-0.3-0.4-0.8-0.4-1.4
		c-0.1,0.2-0.2,0.5-0.4,0.7c-0.2,0.2-0.3,0.4-0.6,0.6c-0.2,0.2-0.5,0.3-0.8,0.4c-0.3,0.1-0.6,0.2-1,0.2c-0.7,0-1.3-0.1-1.7-0.4
		c-0.4-0.2-0.8-0.5-1.1-0.9c-0.3-0.4-0.4-0.8-0.5-1.2c-0.1-0.5-0.1-0.9-0.1-1.4c0-0.9,0-1.6,0-2c0-0.4,0-0.7,0-0.8
		c0-0.6,0-1.1-0.1-1.5c0-0.5-0.1-0.8-0.2-1.1c-0.1-0.3-0.3-0.4-0.5-0.5v-0.1l2.5-1h0.1v7c0,0.2,0,0.3,0,0.5c0,0.2,0,0.3,0,0.3
		c0,0.3,0.1,0.7,0.1,1.1c0.1,0.4,0.3,0.7,0.5,1c0.3,0.3,0.6,0.4,1.1,0.4c0.4,0,0.7-0.1,1-0.2c0.3-0.2,0.6-0.4,0.8-0.6
		c0.2-0.3,0.4-0.5,0.5-0.8c0.1-0.3,0.2-0.6,0.2-0.9v-5.1c0-0.9-0.3-1.4-0.8-1.5v-0.1l2.5-1h0.1v8.2c0,0.7,0,1.2,0.1,1.4
		c0,0.3,0.2,0.4,0.4,0.4c0.1,0,0.2-0.1,0.3-0.2c0.1-0.1,0.2-0.2,0.3-0.3c0.1-0.1,0.2-0.3,0.3-0.5l0.2,0.1c-0.1,0.2-0.2,0.4-0.3,0.6
		c-0.1,0.2-0.2,0.4-0.4,0.6C210.2,239.1,210,239.2,209.8,239.3"/>
	<path class="st48" d="M214.5,243.4c0.1,0.2,0.4,0.4,0.6,0.5v0.2h-3.5v-0.2c0.3-0.1,0.5-0.2,0.6-0.5c0.2-0.2,0.2-0.6,0.2-1.1v-11.1
		c0-0.9-0.3-1.4-0.8-1.5v-0.2l2.5-1h0.1v1.9c0.2-0.5,0.6-0.9,1-1.3c0.5-0.4,1-0.6,1.6-0.6c0.7,0,1.3,0.1,1.8,0.4
		c0.5,0.3,0.9,0.7,1.3,1.1c0.3,0.5,0.6,1,0.8,1.7c0.2,0.6,0.2,1.3,0.2,2c0,0.8-0.1,1.6-0.3,2.2c-0.2,0.6-0.4,1.1-0.7,1.5
		c-0.3,0.4-0.6,0.8-0.9,1c-0.3,0.3-0.7,0.5-1,0.6c-0.3,0.1-0.6,0.2-0.9,0.3c-0.3,0-0.5,0.1-0.6,0.1c-0.6,0-1.1-0.1-1.5-0.3
		c-0.4-0.2-0.7-0.4-0.9-0.6v3.7C214.2,242.8,214.3,243.2,214.5,243.4 M214.8,238.8c0.4,0.3,1,0.5,1.8,0.5c0.4,0,0.8-0.1,1.1-0.4
		c0.3-0.3,0.6-0.7,0.8-1.1c0.2-0.5,0.4-1.1,0.5-1.7s0.1-1.4,0.1-2.1c0-0.5,0-1.1-0.1-1.6c-0.1-0.6-0.2-1.1-0.3-1.5
		c-0.2-0.5-0.4-0.8-0.7-1.1c-0.3-0.3-0.7-0.4-1.2-0.4c-0.4,0-0.8,0.1-1.1,0.2c-0.3,0.2-0.6,0.4-0.8,0.6c-0.2,0.3-0.4,0.5-0.5,0.8
		c-0.1,0.3-0.2,0.6-0.2,0.9v5.8C214.2,238.1,214.4,238.5,214.8,238.8"/>
	<path class="st48" d="M230.2,239.3c-0.2,0.1-0.4,0.2-0.7,0.2c-0.5,0-0.8-0.2-1.1-0.5c-0.3-0.4-0.4-0.9-0.4-1.5v-6.2
		c0-0.9-0.3-1.4-0.8-1.5v-0.2l2.5-1h0.1v8.2c0,0.7,0,1.2,0.1,1.4c0,0.3,0.2,0.4,0.4,0.4c0.1,0,0.2-0.1,0.3-0.2
		c0.1-0.1,0.2-0.2,0.3-0.3c0.1-0.1,0.2-0.3,0.3-0.5l0.2,0.1c-0.1,0.2-0.2,0.4-0.3,0.6c-0.1,0.2-0.2,0.4-0.4,0.6
		S230.4,239.2,230.2,239.3 M229.8,226c-0.2,0.2-0.5,0.3-0.8,0.3c-0.3,0-0.6-0.1-0.8-0.3c-0.2-0.2-0.3-0.5-0.3-0.8
		c0-0.3,0.1-0.6,0.3-0.8c0.2-0.2,0.5-0.3,0.8-0.3c0.3,0,0.6,0.1,0.8,0.3c0.2,0.2,0.3,0.5,0.3,0.8C230.1,225.5,230,225.8,229.8,226"
		/>
	<path class="st48" d="M235.3,238.7c0.1,0.2,0.3,0.4,0.6,0.5v0.1h-3.5v-0.1c0.3-0.1,0.5-0.2,0.6-0.5c0.2-0.2,0.2-0.6,0.2-1.1v-6.4
		c0-0.5-0.1-0.8-0.2-1c-0.1-0.2-0.3-0.4-0.6-0.4v-0.2l2.5-1h0.1v1.9c0.1-0.2,0.2-0.5,0.4-0.7c0.2-0.2,0.4-0.4,0.6-0.6
		c0.2-0.2,0.5-0.3,0.8-0.4c0.3-0.1,0.6-0.2,0.8-0.2c0.8,0,1.4,0.1,1.9,0.4c0.5,0.2,0.8,0.5,1,0.9c0.2,0.4,0.4,0.8,0.4,1.2
		c0.1,0.4,0.1,0.8,0.1,1.2v5.4c0,0.5,0.1,0.8,0.2,1.1c0.2,0.2,0.4,0.4,0.6,0.5v0.1h-3.5v-0.1c0.3-0.1,0.5-0.2,0.6-0.5
		c0.2-0.2,0.2-0.6,0.2-1.1v-5.9c0-0.4,0-0.7-0.1-1.1c-0.1-0.4-0.3-0.7-0.5-1c-0.3-0.3-0.6-0.4-1.1-0.4c-0.8,0-1.4,0.2-1.8,0.7
		c-0.4,0.5-0.6,1-0.7,1.7c-0.1,0.7-0.1,1.3-0.1,2c0,0.3,0,0.7,0,1.4c0,0.7,0,1.5,0,2.7C235,238.1,235.1,238.5,235.3,238.7"/>
	<path class="st48" d="M247.9,238.2c-0.1,0.3-0.3,0.8-0.5,1.4l-3.4-9.2c-0.3-0.8-0.8-1.2-1.4-1.4v-0.2h3.8v0.2
		c-0.2,0.1-0.4,0.2-0.5,0.3c-0.1,0.1-0.1,0.3-0.1,0.4c0,0.2,0,0.4,0.1,0.6l2.2,6.1l1.1-2.8c0.1-0.3,0.3-0.8,0.4-1.3
		c0.1-0.5,0.2-0.9,0.2-1.2c0-0.3,0-0.4,0-0.5c0-0.4-0.1-0.7-0.2-1.1c-0.1-0.3-0.3-0.5-0.7-0.6l0-0.2h3.3v0.2c-0.3,0.1-0.7,0.3-1,0.8
		c-0.3,0.5-0.7,1.2-1.1,2.2c-0.4,1-0.7,1.8-0.9,2.4c-0.2,0.6-0.4,1.1-0.6,1.5c-0.1,0.4-0.2,0.6-0.3,0.8c-0.1,0.2-0.2,0.4-0.2,0.6
		S248.1,237.8,247.9,238.2"/>
	<path class="st48" d="M258.6,239.2c-0.5,0.2-1,0.3-1.7,0.3c-0.5,0-1.1-0.1-1.6-0.3c-0.5-0.2-1-0.6-1.4-1c-0.4-0.5-0.7-1-1-1.7
		c-0.3-0.7-0.4-1.5-0.4-2.4c0-0.7,0.1-1.4,0.3-2.1c0.2-0.7,0.5-1.2,0.9-1.7c0.4-0.5,0.9-0.9,1.4-1.2c0.6-0.3,1.2-0.5,1.9-0.5
		c0.7,0,1.3,0.2,1.8,0.5c0.5,0.3,0.9,0.7,1.2,1.2c0.3,0.5,0.5,1.1,0.7,1.7c0.1,0.6,0.2,1.3,0.2,1.9h-6.6c0,0.6,0,1.1,0.1,1.7
		c0.1,0.5,0.2,1,0.5,1.5c0.2,0.4,0.5,0.8,0.9,1c0.4,0.3,0.8,0.4,1.4,0.4c0.5,0,0.9-0.1,1.3-0.2c0.4-0.1,0.7-0.3,1-0.5
		c0.3-0.2,0.5-0.4,0.7-0.6c0.2-0.2,0.4-0.4,0.5-0.6c0,0,0,0,0,0c0,0,0,0,0.1,0l0.1,0c-0.1,0.2-0.2,0.4-0.4,0.7
		c-0.2,0.3-0.4,0.6-0.8,0.9C259.4,238.7,259,239,258.6,239.2 M254.5,232.1c-0.1,0.6-0.1,1.1-0.1,1.6h4.8c0-0.5,0-1.1,0-1.6
		c0-0.6-0.1-1.1-0.2-1.6c-0.1-0.5-0.4-0.9-0.7-1.2c-0.3-0.3-0.7-0.5-1.3-0.5c-0.5,0-0.9,0.2-1.2,0.5c-0.3,0.3-0.6,0.7-0.8,1.2
		C254.7,231,254.5,231.6,254.5,232.1"/>
	<path class="st48" d="M266.5,239.3c-0.4,0.1-0.8,0.2-1.3,0.2c-0.5,0-1-0.1-1.4-0.2c-0.4-0.1-0.8-0.3-1-0.5
		c-0.3-0.2-0.5-0.5-0.7-0.7c-0.2-0.3-0.2-0.5-0.2-0.7l0.9-0.7c0,0.2,0,0.5,0.1,0.8c0.1,0.3,0.2,0.6,0.4,0.9c0.2,0.3,0.5,0.5,0.8,0.7
		c0.3,0.2,0.7,0.3,1.1,0.3h0.1c0.3,0,0.5-0.1,0.8-0.2c0.2-0.1,0.5-0.2,0.6-0.4c0.2-0.2,0.3-0.4,0.4-0.6c0.1-0.2,0.2-0.4,0.2-0.6
		c0-0.5-0.1-0.9-0.4-1.2c-0.3-0.3-0.6-0.6-0.9-0.9c-0.4-0.3-0.8-0.5-1.2-0.8c-0.4-0.2-0.8-0.5-1.2-0.8c-0.4-0.3-0.7-0.6-0.9-1
		c-0.3-0.4-0.4-0.9-0.4-1.4c0-0.5,0.1-0.9,0.2-1.2c0.2-0.3,0.4-0.6,0.6-0.8c0.3-0.2,0.6-0.4,0.9-0.5c0.3-0.1,0.7-0.2,1.1-0.2
		c0.4,0,0.7,0.1,1.1,0.2c0.3,0.1,0.6,0.3,0.8,0.5c0.2,0.2,0.4,0.5,0.6,0.7c0.1,0.3,0.2,0.5,0.2,0.7l-0.9,0.7c0-0.2,0-0.5-0.1-0.8
		c-0.1-0.3-0.2-0.6-0.3-0.9c-0.1-0.3-0.3-0.5-0.6-0.7c-0.2-0.2-0.5-0.3-0.9-0.3c-0.5,0-0.9,0.1-1.2,0.4c-0.3,0.3-0.5,0.6-0.5,1
		c0,0.5,0.1,0.9,0.4,1.3c0.3,0.3,0.6,0.7,1,0.9c0.4,0.3,0.8,0.5,1.2,0.8c0.4,0.2,0.9,0.5,1.2,0.8c0.4,0.3,0.7,0.7,1,1.1
		c0.3,0.4,0.4,0.9,0.4,1.5c0,0.4-0.1,0.8-0.2,1.2c-0.2,0.4-0.4,0.7-0.7,0.9C267.2,239,266.9,239.2,266.5,239.3"/>
	<path class="st48" d="M272.2,239.3c-0.2,0.1-0.4,0.2-0.7,0.2c-0.5,0-0.8-0.2-1.1-0.5c-0.2-0.4-0.4-0.9-0.4-1.5V229h-0.8v-0.2h0.8
		v-2.2l1.7-0.7h0.1v2.9h1.8v0.2h-1.8v7.8c0,0.7,0,1.2,0.1,1.4c0,0.3,0.2,0.4,0.3,0.4c0.1,0,0.2-0.1,0.3-0.2c0.1-0.1,0.2-0.2,0.3-0.3
		c0.1-0.1,0.2-0.3,0.3-0.5l0.2,0.1c-0.1,0.2-0.1,0.4-0.2,0.6c-0.1,0.2-0.2,0.4-0.4,0.6C272.6,239.1,272.4,239.2,272.2,239.3"/>
	<path class="st48" d="M277.5,238.7c0.1,0.2,0.3,0.4,0.6,0.5v0.1h-3.5v-0.1c0.3-0.1,0.5-0.2,0.6-0.5c0.2-0.2,0.2-0.6,0.2-1.1v-6.4
		c0-0.9-0.3-1.4-0.8-1.5v-0.2l2.5-1h0.1v1.9c0.1-0.3,0.3-0.5,0.5-0.8c0.2-0.2,0.5-0.4,0.7-0.6s0.6-0.3,0.9-0.4
		c0.3-0.1,0.6-0.1,0.9-0.1c0.3,0,0.6,0,0.9,0.1c0.3,0.1,0.6,0.2,0.8,0.3c0.3,0.2,0.5,0.4,0.6,0.6c0.2,0.2,0.3,0.5,0.4,0.9
		c0.1-0.3,0.2-0.5,0.4-0.8c0.2-0.2,0.4-0.4,0.7-0.6c0.3-0.2,0.6-0.3,0.9-0.4c0.3-0.1,0.6-0.1,0.9-0.1c0.7,0,1.3,0.1,1.8,0.4
		c0.4,0.2,0.8,0.5,1,0.9c0.2,0.4,0.4,0.8,0.5,1.3c0.1,0.5,0.1,0.9,0.1,1.4v5.1c0,0.5,0.1,0.8,0.2,1.1c0.2,0.2,0.4,0.4,0.6,0.5v0.1
		h-3.5v-0.1c0.3-0.1,0.5-0.2,0.6-0.5c0.2-0.2,0.2-0.6,0.2-1.1v-5.1c0-0.3,0-0.6,0-1c0-0.4-0.1-0.8-0.2-1.1c-0.1-0.3-0.3-0.6-0.5-0.9
		c-0.3-0.2-0.6-0.4-1-0.4c-0.6,0-1.1,0.1-1.4,0.5c-0.3,0.3-0.6,0.6-0.7,1c-0.2,0.4-0.2,0.8-0.3,1.1s0,0.6,0,0.7v5.1
		c0,0.5,0.1,0.8,0.2,1.1c0.2,0.2,0.4,0.4,0.6,0.5v0.1h-3.5v-0.1c0.3-0.1,0.5-0.2,0.6-0.5c0.2-0.2,0.2-0.6,0.2-1.1v-5.1
		c0-0.2,0-0.4,0-0.8c0-0.4-0.1-0.7-0.2-1.1c-0.1-0.4-0.3-0.7-0.5-1c-0.3-0.3-0.6-0.4-1-0.4c-0.4,0-0.7,0.1-1,0.2
		c-0.3,0.2-0.6,0.3-0.8,0.6c-0.2,0.2-0.4,0.5-0.5,0.8c-0.1,0.3-0.2,0.6-0.2,0.9v6C277.3,238.1,277.3,238.5,277.5,238.7"/>
	<path class="st48" d="M297.2,239.2c-0.5,0.2-1,0.3-1.7,0.3c-0.5,0-1.1-0.1-1.6-0.3c-0.5-0.2-1-0.6-1.4-1c-0.4-0.5-0.7-1-1-1.7
		c-0.3-0.7-0.4-1.5-0.4-2.4c0-0.7,0.1-1.4,0.3-2.1c0.2-0.7,0.5-1.2,0.9-1.7c0.4-0.5,0.9-0.9,1.4-1.2c0.6-0.3,1.2-0.5,1.9-0.5
		c0.7,0,1.3,0.2,1.8,0.5c0.5,0.3,0.9,0.7,1.2,1.2c0.3,0.5,0.5,1.1,0.7,1.7c0.1,0.6,0.2,1.3,0.2,1.9H293c0,0.6,0,1.1,0.1,1.7
		c0.1,0.5,0.2,1,0.5,1.5c0.2,0.4,0.5,0.8,0.9,1c0.4,0.3,0.8,0.4,1.4,0.4c0.5,0,0.9-0.1,1.3-0.2c0.4-0.1,0.7-0.3,1-0.5
		c0.3-0.2,0.5-0.4,0.7-0.6c0.2-0.2,0.4-0.4,0.5-0.6c0,0,0,0,0,0c0,0,0,0,0.1,0l0.1,0c-0.1,0.2-0.2,0.4-0.4,0.7
		c-0.2,0.3-0.4,0.6-0.8,0.9C298,238.7,297.7,239,297.2,239.2 M293.1,232.1c-0.1,0.6-0.1,1.1-0.1,1.6h4.8c0-0.5,0-1.1,0-1.6
		c0-0.6-0.1-1.1-0.2-1.6c-0.1-0.5-0.4-0.9-0.7-1.2c-0.3-0.3-0.7-0.5-1.3-0.5c-0.5,0-0.9,0.2-1.2,0.5c-0.3,0.3-0.6,0.7-0.8,1.2
		C293.3,231,293.2,231.6,293.1,232.1"/>
	<path class="st48" d="M303.4,238.7c0.1,0.2,0.3,0.4,0.6,0.5v0.1h-3.5v-0.1c0.3-0.1,0.5-0.2,0.6-0.5c0.2-0.2,0.2-0.6,0.2-1.1v-6.4
		c0-0.5-0.1-0.8-0.2-1c-0.1-0.2-0.3-0.4-0.6-0.4v-0.2l2.5-1h0.1v1.9c0.1-0.2,0.2-0.5,0.4-0.7c0.2-0.2,0.4-0.4,0.6-0.6
		c0.2-0.2,0.5-0.3,0.8-0.4c0.3-0.1,0.6-0.2,0.8-0.2c0.8,0,1.4,0.1,1.9,0.4c0.5,0.2,0.8,0.5,1,0.9c0.2,0.4,0.4,0.8,0.4,1.2
		c0.1,0.4,0.1,0.8,0.1,1.2v5.4c0,0.5,0.1,0.8,0.2,1.1c0.2,0.2,0.4,0.4,0.6,0.5v0.1h-3.5v-0.1c0.3-0.1,0.5-0.2,0.6-0.5
		c0.2-0.2,0.2-0.6,0.2-1.1v-5.9c0-0.4,0-0.7-0.1-1.1c-0.1-0.4-0.3-0.7-0.5-1c-0.3-0.3-0.6-0.4-1.1-0.4c-0.8,0-1.4,0.2-1.8,0.7
		c-0.4,0.5-0.6,1-0.7,1.7c-0.1,0.7-0.1,1.3-0.1,2c0,0.3,0,0.7,0,1.4c0,0.7,0,1.5,0,2.7C303.2,238.1,303.2,238.5,303.4,238.7"/>
	<path class="st48" d="M314,239.3c-0.2,0.1-0.4,0.2-0.7,0.2c-0.5,0-0.8-0.2-1.1-0.5c-0.2-0.4-0.4-0.9-0.4-1.5V229h-0.8v-0.2h0.8
		v-2.2l1.7-0.7h0.1v2.9h1.8v0.2h-1.8v7.8c0,0.7,0,1.2,0.1,1.4c0,0.3,0.2,0.4,0.3,0.4c0.1,0,0.2-0.1,0.3-0.2c0.1-0.1,0.2-0.2,0.3-0.3
		c0.1-0.1,0.2-0.3,0.3-0.5l0.2,0.1c-0.1,0.2-0.1,0.4-0.2,0.6c-0.1,0.2-0.2,0.4-0.4,0.6C314.4,239.1,314.2,239.2,314,239.3"/>
	<path class="st48" d="M321,239.3c-0.4,0.1-0.8,0.2-1.3,0.2c-0.5,0-1-0.1-1.4-0.2c-0.4-0.1-0.8-0.3-1-0.5c-0.3-0.2-0.5-0.5-0.7-0.7
		c-0.2-0.3-0.2-0.5-0.2-0.7l0.9-0.7c0,0.2,0,0.5,0.1,0.8c0.1,0.3,0.2,0.6,0.4,0.9c0.2,0.3,0.5,0.5,0.8,0.7c0.3,0.2,0.7,0.3,1.1,0.3
		h0.1c0.3,0,0.5-0.1,0.8-0.2c0.2-0.1,0.5-0.2,0.6-0.4c0.2-0.2,0.3-0.4,0.4-0.6c0.1-0.2,0.2-0.4,0.2-0.6c0-0.5-0.1-0.9-0.4-1.2
		c-0.3-0.3-0.6-0.6-0.9-0.9c-0.4-0.3-0.8-0.5-1.2-0.8c-0.4-0.2-0.8-0.5-1.2-0.8c-0.4-0.3-0.7-0.6-0.9-1c-0.3-0.4-0.4-0.9-0.4-1.4
		c0-0.5,0.1-0.9,0.2-1.2c0.2-0.3,0.4-0.6,0.6-0.8c0.3-0.2,0.6-0.4,0.9-0.5c0.3-0.1,0.7-0.2,1.1-0.2c0.4,0,0.7,0.1,1.1,0.2
		c0.3,0.1,0.6,0.3,0.8,0.5c0.2,0.2,0.4,0.5,0.6,0.7c0.1,0.3,0.2,0.5,0.2,0.7l-0.9,0.7c0-0.2,0-0.5-0.1-0.8c-0.1-0.3-0.2-0.6-0.3-0.9
		c-0.1-0.3-0.3-0.5-0.6-0.7c-0.2-0.2-0.5-0.3-0.9-0.3c-0.5,0-0.9,0.1-1.2,0.4c-0.3,0.3-0.5,0.6-0.5,1c0,0.5,0.1,0.9,0.4,1.3
		c0.3,0.3,0.6,0.7,1,0.9c0.4,0.3,0.8,0.5,1.2,0.8c0.4,0.2,0.9,0.5,1.2,0.8c0.4,0.3,0.7,0.7,1,1.1c0.3,0.4,0.4,0.9,0.4,1.5
		c0,0.4-0.1,0.8-0.2,1.2c-0.2,0.4-0.4,0.7-0.7,0.9C321.7,239,321.4,239.2,321,239.3"/>
</g>
<g>
	<defs>
		<rect id="SVGID_147_" x="186.8" y="257.3" width="2.4" height="2.4"/>
	</defs>
	<clipPath id="SVGID_148_">
		<use xlink:href="#SVGID_147_"  style="overflow:visible;"/>
	</clipPath>
	
		<linearGradient id="SVGID_149_" gradientUnits="userSpaceOnUse" x1="-611.999" y1="621.43" x2="-610.999" y2="621.43" gradientTransform="matrix(127.1749 150.7258 150.7258 -127.1749 -15735.5566 171427.3906)">
		<stop  offset="0" style="stop-color:#D5AE91"/>
		<stop  offset="1" style="stop-color:#9E7563"/>
	</linearGradient>
	<polygon class="st49" points="188.2,256.1 190.4,258.7 187.8,260.9 185.6,258.3 	"/>
</g>
<g>
	<defs>
		<path id="SVGID_150_" d="M186.8,257.3h2.4v2.4h-2.4V257.3z M186.8,253c0,2.4-1.9,4.3-4.3,4.3v2.4c2.4,0,4.3,1.9,4.3,4.3h2.4
			c0-2.4,1.9-4.3,4.3-4.3v-2.4c-2.4,0-4.3-1.9-4.3-4.3H186.8z"/>
	</defs>
	<clipPath id="SVGID_151_">
		<use xlink:href="#SVGID_150_"  style="overflow:visible;"/>
	</clipPath>
	
		<linearGradient id="SVGID_152_" gradientUnits="userSpaceOnUse" x1="-611.999" y1="621.43" x2="-610.999" y2="621.43" gradientTransform="matrix(127.3099 150.8858 150.8858 -127.3099 -15752.4746 171609.1719)">
		<stop  offset="0" style="stop-color:#D5AE91"/>
		<stop  offset="1" style="stop-color:#9E7563"/>
	</linearGradient>
	<polygon class="st50" points="188.9,247.6 198.9,259.4 187.1,269.5 177.1,257.6 	"/>
</g>
</svg>
