<svg width="36" height="18" viewBox="0 0 36 18" fill="none" xmlns="http://www.w3.org/2000/svg">
  <path d="M1.12498 2.24995H34.8751C35.4961 2.24995 36.0001 1.74591 36.0001 1.12498C36.0001 0.503949 35.4961 0 34.8751 0H1.12498C0.503948 0 0 0.504042 0 1.12498C0 1.74591 0.504042 2.24995 1.12498 2.24995Z" fill="#C69E84"/>
  <path d="M34.8751 7.875H1.12498C0.503948 7.875 0 8.37904 0 8.99998C0 9.62091 0.504042 10.125 1.12498 10.125H34.8751C35.4961 10.125 36.0001 9.62091 36.0001 8.99998C36.0001 8.37904 35.4961 7.875 34.8751 7.875Z" fill="#C69E84"/>
  <path d="M34.8751 15.7501H12.375C11.754 15.7501 11.2501 16.2541 11.2501 16.875C11.2501 17.4961 11.7541 18 12.375 18H34.8751C35.4962 18 36.0001 17.496 36.0001 16.875C36.0002 16.254 35.4962 15.7501 34.8751 15.7501Z" fill="#C69E84"/>
</svg>
